{"accessors":[{"bufferView":0,"byteOffset":0,"componentType":5126,"count":4337,"max":[0.317562460899353,1.94303202629089,0.378061026334763],"min":[-0.31237143278122,-0.0000000449716,-0.31975045800209],"normalized":false,"type":"VEC3"},{"bufferView":1,"byteOffset":0,"componentType":5126,"count":4337,"max":[1,1,1,1],"min":[-1,-1,-1,-1],"normalized":false,"type":"VEC4"},{"bufferView":2,"byteOffset":0,"componentType":5126,"count":4337,"max":[1,1,1],"min":[-1,-1,-1],"normalized":false,"type":"VEC3"},{"bufferView":3,"byteOffset":0,"componentType":5126,"count":4337,"max":[0.99658203125,0.99658203125],"min":[0.00337982177734375,0.011993408203125],"normalized":false,"type":"VEC2"},{"bufferView":4,"byteOffset":0,"componentType":5126,"count":4337,"max":[0.99609375,0.99658203125],"min":[0.00317192077636719,0.003173828125],"normalized":false,"type":"VEC2"},{"bufferView":5,"byteOffset":0,"componentType":5123,"count":10140,"max":[3855],"min":[0],"normalized":false,"type":"SCALAR"}],"asset":{"generator":"Godot Engine v4.3.stable.official@77dcf97d82cbfe4e4615475fa52ca03da645dbd8","version":"2.0"},"bufferViews":[{"buffer":0,"byteLength":52044,"byteOffset":0,"byteStride":12,"target":34962},{"buffer":0,"byteLength":69392,"byteOffset":52044,"byteStride":16,"target":34962},{"buffer":0,"byteLength":52044,"byteOffset":121436,"byteStride":12,"target":34962},{"buffer":0,"byteLength":34696,"byteOffset":173480,"byteStride":8,"target":34962},{"buffer":0,"byteLength":34696,"byteOffset":208176,"byteStride":8,"target":34962},{"buffer":0,"byteLength":20280,"byteOffset":242872,"target":34963}],"buffers":[{"byteLength":263152,"uri":"SM_Bird_Cage0.bin"}],"extensionsUsed":["GODOT_single_root"],"images":[{"uri":"textures%2FSM_Bird_Cage_MI_Bird_Cage_0_albedo.png"},{"uri":"textures%2FSM_Bird_Cage_MI_Bird_Cage_0_orm.png"},{"uri":"textures%2FSM_Bird_Cage_MI_Bird_Cage_0_normal.png"}],"materials":[{"extensions":{},"name":"SM_Bird_Cage_MI_Bird_Cage_0","normalTexture":{"index":2,"scale":1},"pbrMetallicRoughness":{"baseColorFactor":[0.99999988079071,0.99999988079071,0.99999988079071,1],"baseColorTexture":{"index":0},"metallicFactor":1,"metallicRoughnessTexture":{"index":1},"roughnessFactor":0.5}}],"meshes":[{"extras":{"targetNames":[]},"primitives":[{"attributes":{"NORMAL":2,"POSITION":0,"TANGENT":1,"TEXCOORD_0":3,"TEXCOORD_1":4},"indices":5,"material":0,"mode":4}]}],"nodes":[{"children":[1],"name":"SM_Bird_Cage"},{"mesh":0,"name":"Mesh"}],"samplers":[{"magFilter":9729,"minFilter":9987,"wrapS":10497,"wrapT":10497}],"scene":0,"scenes":[{"nodes":[0]}],"textures":[{"sampler":0,"source":0},{"sampler":0,"source":1},{"sampler":0,"source":2}]}