{"accessors":[{"bufferView":0,"byteOffset":0,"componentType":5126,"count":2991,"max":[1.93076503276825,2.1514265537262,0.0000681622623233125],"min":[-1.1816018819809,-0.00000010959899,-0.96585255861282],"normalized":false,"type":"VEC3"},{"bufferView":1,"byteOffset":0,"componentType":5126,"count":2991,"max":[1,1,1,1],"min":[-1,-1,-1,-1],"normalized":false,"type":"VEC4"},{"bufferView":2,"byteOffset":0,"componentType":5126,"count":2991,"max":[1,1,0.999968886375427],"min":[-1,-1,-1],"normalized":false,"type":"VEC3"},{"bufferView":3,"byteOffset":0,"componentType":5126,"count":2991,"max":[0.99658203125,0.99658203125],"min":[0.00341796875,0.059234619140625],"normalized":false,"type":"VEC2"},{"bufferView":4,"byteOffset":0,"componentType":5126,"count":2991,"max":[0.998046875,0.998046875],"min":[0.00146865844726563,0.00330543518066406],"normalized":false,"type":"VEC2"},{"bufferView":5,"byteOffset":0,"componentType":5123,"count":4926,"max":[1602],"min":[0],"normalized":false,"type":"SCALAR"}],"asset":{"generator":"Godot Engine v4.3.stable.official@77dcf97d82cbfe4e4615475fa52ca03da645dbd8","version":"2.0"},"bufferViews":[{"buffer":0,"byteLength":35892,"byteOffset":0,"byteStride":12,"target":34962},{"buffer":0,"byteLength":47856,"byteOffset":35892,"byteStride":16,"target":34962},{"buffer":0,"byteLength":35892,"byteOffset":83748,"byteStride":12,"target":34962},{"buffer":0,"byteLength":23928,"byteOffset":119640,"byteStride":8,"target":34962},{"buffer":0,"byteLength":23928,"byteOffset":143568,"byteStride":8,"target":34962},{"buffer":0,"byteLength":9852,"byteOffset":167496,"target":34963}],"buffers":[{"byteLength":177348,"uri":"SM_BarShelf0.bin"}],"extensionsUsed":["GODOT_single_root"],"images":[{"uri":"textures%2FSM_BarShelf_MI_Barshelf_0_albedo.png"},{"uri":"textures%2FSM_BarShelf_MI_Barshelf_0_normal.png"}],"materials":[{"extensions":{},"name":"SM_BarShelf_MI_Barshelf_0","normalTexture":{"index":1,"scale":1},"pbrMetallicRoughness":{"baseColorFactor":[0.99999988079071,0.99999988079071,0.99999988079071,1],"baseColorTexture":{"index":0},"metallicFactor":0,"roughnessFactor":0.5}}],"meshes":[{"extras":{"targetNames":[]},"primitives":[{"attributes":{"NORMAL":2,"POSITION":0,"TANGENT":1,"TEXCOORD_0":3,"TEXCOORD_1":4},"indices":5,"material":0,"mode":4}]}],"nodes":[{"children":[1],"name":"SM_BarShelf"},{"mesh":0,"name":"Mesh","rotation":[0,1,0,-0.00000004371139]}],"samplers":[{"magFilter":9729,"minFilter":9987,"wrapS":10497,"wrapT":10497}],"scene":0,"scenes":[{"nodes":[0]}],"textures":[{"sampler":0,"source":0},{"sampler":0,"source":1}]}