{"accessors":[{"bufferView":0,"byteOffset":0,"componentType":5126,"count":2648,"max":[0.0415405258536339,0.127001866698265,0.0376803800463676],"min":[-0.03673929721117,-0.00195598974824,-0.03541093319654],"normalized":false,"type":"VEC3"},{"bufferView":1,"byteOffset":0,"componentType":5126,"count":2648,"max":[0.99937915802002,0.999969124794006,0.999379575252533,1],"min":[-0.9984866976738,-1,-0.99971973896027,-1],"normalized":false,"type":"VEC4"},{"bufferView":2,"byteOffset":0,"componentType":5126,"count":2648,"max":[0.999226808547974,0.999969005584717,0.999968886375427],"min":[-0.99990427494049,-1,-0.99961495399475],"normalized":false,"type":"VEC3"},{"bufferView":3,"byteOffset":0,"componentType":5126,"count":2648,"max":[0.99658203125,0.99658203125],"min":[0.0560302734375,0.0187530517578125],"normalized":false,"type":"VEC2"},{"bufferView":4,"byteOffset":0,"componentType":5126,"count":2648,"max":[0.99560546875,0.99560546875],"min":[0.00398635864257813,0.053741455078125],"normalized":false,"type":"VEC2"},{"bufferView":5,"byteOffset":0,"componentType":5123,"count":2403,"max":[2231],"min":[0],"normalized":false,"type":"SCALAR"},{"bufferView":6,"byteOffset":0,"componentType":5126,"count":4,"max":[0.016290495172143,0.18517541885376,-0.00246404856443],"min":[-0.02211506105959,0.113720327615738,-0.0024640634656],"normalized":false,"type":"VEC3"},{"bufferView":7,"byteOffset":0,"componentType":5126,"count":4,"max":[1,0.000000000731470217729679,0.000047936900955392,1],"min":[1,0.000000000731470217729679,0.000047936900955392,1],"normalized":false,"type":"VEC4"},{"bufferView":8,"byteOffset":0,"componentType":5126,"count":4,"max":[-0.00004793690096,0,1],"min":[-0.00004793690096,0,1],"normalized":false,"type":"VEC3"},{"bufferView":9,"byteOffset":0,"componentType":5126,"count":4,"max":[0.764156579971313,0.986816227436066],"min":[0.240711063146591,0.0128786144778132],"normalized":false,"type":"VEC2"},{"bufferView":10,"byteOffset":0,"componentType":5126,"count":4,"max":[0.988281071186066,0.520500481128693],"min":[0.665522217750549,0.347158014774323],"normalized":false,"type":"VEC2"},{"bufferView":11,"byteOffset":0,"componentType":5123,"count":6,"max":[3],"min":[0],"normalized":false,"type":"SCALAR"}],"asset":{"generator":"Godot Engine v4.3.stable.official@77dcf97d82cbfe4e4615475fa52ca03da645dbd8","version":"2.0"},"bufferViews":[{"buffer":0,"byteLength":31776,"byteOffset":0,"byteStride":12,"target":34962},{"buffer":0,"byteLength":42368,"byteOffset":31776,"byteStride":16,"target":34962},{"buffer":0,"byteLength":31776,"byteOffset":74144,"byteStride":12,"target":34962},{"buffer":0,"byteLength":21184,"byteOffset":105920,"byteStride":8,"target":34962},{"buffer":0,"byteLength":21184,"byteOffset":127104,"byteStride":8,"target":34962},{"buffer":0,"byteLength":4806,"byteOffset":148288,"target":34963},{"buffer":0,"byteLength":48,"byteOffset":153096,"byteStride":12,"target":34962},{"buffer":0,"byteLength":64,"byteOffset":153144,"byteStride":16,"target":34962},{"buffer":0,"byteLength":48,"byteOffset":153208,"byteStride":12,"target":34962},{"buffer":0,"byteLength":32,"byteOffset":153256,"byteStride":8,"target":34962},{"buffer":0,"byteLength":32,"byteOffset":153288,"byteStride":8,"target":34962},{"buffer":0,"byteLength":12,"byteOffset":153320,"target":34963}],"buffers":[{"byteLength":153332,"uri":"SM_Candle_020.bin"}],"extensionsUsed":["GODOT_single_root"],"images":[{"uri":"textures%2FSM_Candle_02_MI_Candle_0_albedo.png"},{"uri":"textures%2FSM_Candle_02_MI_Candle_0_normal.png"},{"uri":"textures%2FSM_Candle_02_MI_Flame_02_1_albedo.png"}],"materials":[{"extensions":{},"name":"SM_Candle_02_MI_Candle_0","normalTexture":{"index":1,"scale":1},"pbrMetallicRoughness":{"baseColorFactor":[0.99999988079071,0.99999988079071,0.99999988079071,1],"baseColorTexture":{"index":0},"metallicFactor":0,"roughnessFactor":0.5}},{"doubleSided":true,"extensions":{},"name":"SM_Candle_02_MI_Flame_02_1","pbrMetallicRoughness":{"baseColorFactor":[0.99999988079071,0.99999988079071,0.99999988079071,1],"baseColorTexture":{"index":2},"metallicFactor":0,"roughnessFactor":0.5}}],"meshes":[{"extras":{"targetNames":[]},"primitives":[{"attributes":{"NORMAL":2,"POSITION":0,"TANGENT":1,"TEXCOORD_0":3,"TEXCOORD_1":4},"indices":5,"material":0,"mode":4},{"attributes":{"NORMAL":8,"POSITION":6,"TANGENT":7,"TEXCOORD_0":9,"TEXCOORD_1":10},"indices":11,"material":1,"mode":4}]}],"nodes":[{"children":[1],"name":"SM_Candle_02"},{"mesh":0,"name":"Mesh"}],"samplers":[{"magFilter":9729,"minFilter":9987,"wrapS":10497,"wrapT":10497}],"scene":0,"scenes":[{"nodes":[0]}],"textures":[{"sampler":0,"source":0},{"sampler":0,"source":1},{"sampler":0,"source":2}]}