{"accessors":[{"bufferView":0,"byteOffset":0,"componentType":5126,"count":2726,"max":[0.0386213771998882,0.0814937204122543,0.0423915982246399],"min":[-0.03742255270481,-0.00195587053895,-0.03574792668223],"normalized":false,"type":"VEC3"},{"bufferView":1,"byteOffset":0,"componentType":5126,"count":2726,"max":[1,0.999503374099731,0.999876320362091,1],"min":[-1,-0.99876356124878,-0.99996900558472,-1],"normalized":false,"type":"VEC4"},{"bufferView":2,"byteOffset":0,"componentType":5126,"count":2726,"max":[0.999473571777344,1,0.999579250812531],"min":[-0.99860841035843,-1,-0.99697887897491],"normalized":false,"type":"VEC3"},{"bufferView":3,"byteOffset":0,"componentType":5126,"count":2726,"max":[0.99609375,0.62451171875],"min":[0.00304985046386719,0.00970458984375],"normalized":false,"type":"VEC2"},{"bufferView":4,"byteOffset":0,"componentType":5126,"count":2726,"max":[0.99560546875,0.99560546875],"min":[0.00398635864257813,0.10906982421875],"normalized":false,"type":"VEC2"},{"bufferView":5,"byteOffset":0,"componentType":5123,"count":2403,"max":[2315],"min":[0],"normalized":false,"type":"SCALAR"},{"bufferView":6,"byteOffset":0,"componentType":5126,"count":4,"max":[0.0166300032287836,0.137795373797417,-0.00246404856443],"min":[-0.02177555300295,0.0663402825593948,-0.0024640634656],"normalized":false,"type":"VEC3"},{"bufferView":7,"byteOffset":0,"componentType":5126,"count":4,"max":[1,0.000000000731470217729679,0.000047936900955392,1],"min":[1,0.000000000731470217729679,0.000047936900955392,1],"normalized":false,"type":"VEC4"},{"bufferView":8,"byteOffset":0,"componentType":5126,"count":4,"max":[-0.00004793690096,0,1],"min":[-0.00004793690096,0,1],"normalized":false,"type":"VEC3"},{"bufferView":9,"byteOffset":0,"componentType":5126,"count":4,"max":[0.764156579971313,0.986816227436066],"min":[0.240711063146591,0.0128786144778132],"normalized":false,"type":"VEC2"},{"bufferView":10,"byteOffset":0,"componentType":5126,"count":4,"max":[0.790035843849182,0.995605409145355],"min":[0.625482559204102,0.689936697483063],"normalized":false,"type":"VEC2"},{"bufferView":11,"byteOffset":0,"componentType":5123,"count":6,"max":[3],"min":[0],"normalized":false,"type":"SCALAR"}],"asset":{"generator":"Godot Engine v4.3.stable.official@77dcf97d82cbfe4e4615475fa52ca03da645dbd8","version":"2.0"},"bufferViews":[{"buffer":0,"byteLength":32712,"byteOffset":0,"byteStride":12,"target":34962},{"buffer":0,"byteLength":43616,"byteOffset":32712,"byteStride":16,"target":34962},{"buffer":0,"byteLength":32712,"byteOffset":76328,"byteStride":12,"target":34962},{"buffer":0,"byteLength":21808,"byteOffset":109040,"byteStride":8,"target":34962},{"buffer":0,"byteLength":21808,"byteOffset":130848,"byteStride":8,"target":34962},{"buffer":0,"byteLength":4806,"byteOffset":152656,"target":34963},{"buffer":0,"byteLength":48,"byteOffset":157464,"byteStride":12,"target":34962},{"buffer":0,"byteLength":64,"byteOffset":157512,"byteStride":16,"target":34962},{"buffer":0,"byteLength":48,"byteOffset":157576,"byteStride":12,"target":34962},{"buffer":0,"byteLength":32,"byteOffset":157624,"byteStride":8,"target":34962},{"buffer":0,"byteLength":32,"byteOffset":157656,"byteStride":8,"target":34962},{"buffer":0,"byteLength":12,"byteOffset":157688,"target":34963}],"buffers":[{"byteLength":157700,"uri":"SM_Candle_010.bin"}],"extensionsUsed":["GODOT_single_root"],"images":[{"uri":"textures%2FSM_Candle_01_MI_Candle_0_albedo.png"},{"uri":"textures%2FSM_Candle_01_MI_Candle_0_normal.png"},{"uri":"textures%2FSM_Candle_01_MI_Flame_01_1_albedo.png"}],"materials":[{"extensions":{},"name":"SM_Candle_01_MI_Candle_0","normalTexture":{"index":1,"scale":1},"pbrMetallicRoughness":{"baseColorFactor":[0.99999988079071,0.99999988079071,0.99999988079071,1],"baseColorTexture":{"index":0},"metallicFactor":0,"roughnessFactor":0.5}},{"doubleSided":true,"extensions":{},"name":"SM_Candle_01_MI_Flame_01_1","pbrMetallicRoughness":{"baseColorFactor":[0.99999988079071,0.99999988079071,0.99999988079071,1],"baseColorTexture":{"index":2},"metallicFactor":0,"roughnessFactor":0.5}}],"meshes":[{"extras":{"targetNames":[]},"primitives":[{"attributes":{"NORMAL":2,"POSITION":0,"TANGENT":1,"TEXCOORD_0":3,"TEXCOORD_1":4},"indices":5,"material":0,"mode":4},{"attributes":{"NORMAL":8,"POSITION":6,"TANGENT":7,"TEXCOORD_0":9,"TEXCOORD_1":10},"indices":11,"material":1,"mode":4}]}],"nodes":[{"children":[1],"name":"SM_Candle_01"},{"mesh":0,"name":"Mesh"}],"samplers":[{"magFilter":9729,"minFilter":9987,"wrapS":10497,"wrapT":10497}],"scene":0,"scenes":[{"nodes":[0]}],"textures":[{"sampler":0,"source":0},{"sampler":0,"source":1},{"sampler":0,"source":2}]}