{"accessors":[{"bufferView":0,"byteOffset":0,"componentType":5126,"count":2651,"max":[0.0372085049748421,0.221884056925774,0.0350743792951107],"min":[-0.03790392354131,-0.00195598974824,-0.03648045286536],"normalized":false,"type":"VEC3"},{"bufferView":1,"byteOffset":0,"componentType":5126,"count":2651,"max":[0.997712969779968,1,0.997498214244843,1],"min":[-0.99789905548096,-1,-0.99691373109818,-1],"normalized":false,"type":"VEC4"},{"bufferView":2,"byteOffset":0,"componentType":5126,"count":2651,"max":[0.997376263141632,0.999969124794006,0.998664915561676],"min":[-0.99746906757355,-1,-0.99771320819855],"normalized":false,"type":"VEC3"},{"bufferView":3,"byteOffset":0,"componentType":5126,"count":2651,"max":[0.9873046875,0.99658203125],"min":[0.00305366516113281,0.0175323486328125],"normalized":false,"type":"VEC2"},{"bufferView":4,"byteOffset":0,"componentType":5126,"count":2651,"max":[0.99267578125,0.99609375],"min":[0.00385856628417969,0.00385856628417969],"normalized":false,"type":"VEC2"},{"bufferView":5,"byteOffset":0,"componentType":5123,"count":2403,"max":[2229],"min":[0],"normalized":false,"type":"SCALAR"},{"bufferView":6,"byteOffset":0,"componentType":5126,"count":4,"max":[0.0167096350342035,0.277160942554474,-0.00246404856443],"min":[-0.02169592119753,0.205705866217613,-0.0024640634656],"normalized":false,"type":"VEC3"},{"bufferView":7,"byteOffset":0,"componentType":5126,"count":4,"max":[1,0.000000000731470217729679,0.000047936900955392,1],"min":[1,0.000000000731470217729679,0.000047936900955392,1],"normalized":false,"type":"VEC4"},{"bufferView":8,"byteOffset":0,"componentType":5126,"count":4,"max":[-0.00004793690096,0,1],"min":[-0.00004793690096,0,1],"normalized":false,"type":"VEC3"},{"bufferView":9,"byteOffset":0,"componentType":5126,"count":4,"max":[0.764156579971313,0.986816227436066],"min":[0.240711063146591,0.0128786144778132],"normalized":false,"type":"VEC2"},{"bufferView":10,"byteOffset":0,"componentType":5126,"count":4,"max":[0.892088174819946,0.996093690395355],"min":[0.754879057407379,0.740718722343445],"normalized":false,"type":"VEC2"},{"bufferView":11,"byteOffset":0,"componentType":5123,"count":6,"max":[3],"min":[0],"normalized":false,"type":"SCALAR"}],"asset":{"generator":"Godot Engine v4.3.stable.official@77dcf97d82cbfe4e4615475fa52ca03da645dbd8","version":"2.0"},"bufferViews":[{"buffer":0,"byteLength":31812,"byteOffset":0,"byteStride":12,"target":34962},{"buffer":0,"byteLength":42416,"byteOffset":31812,"byteStride":16,"target":34962},{"buffer":0,"byteLength":31812,"byteOffset":74228,"byteStride":12,"target":34962},{"buffer":0,"byteLength":21208,"byteOffset":106040,"byteStride":8,"target":34962},{"buffer":0,"byteLength":21208,"byteOffset":127248,"byteStride":8,"target":34962},{"buffer":0,"byteLength":4806,"byteOffset":148456,"target":34963},{"buffer":0,"byteLength":48,"byteOffset":153264,"byteStride":12,"target":34962},{"buffer":0,"byteLength":64,"byteOffset":153312,"byteStride":16,"target":34962},{"buffer":0,"byteLength":48,"byteOffset":153376,"byteStride":12,"target":34962},{"buffer":0,"byteLength":32,"byteOffset":153424,"byteStride":8,"target":34962},{"buffer":0,"byteLength":32,"byteOffset":153456,"byteStride":8,"target":34962},{"buffer":0,"byteLength":12,"byteOffset":153488,"target":34963}],"buffers":[{"byteLength":153500,"uri":"SM_Candle_030.bin"}],"extensionsUsed":["GODOT_single_root"],"images":[{"uri":"textures%2FSM_Candle_03_MI_Candle_0_albedo.png"},{"uri":"textures%2FSM_Candle_03_MI_Candle_0_normal.png"},{"uri":"textures%2FSM_Candle_03_MI_Flame_03_1_albedo.png"}],"materials":[{"extensions":{},"name":"SM_Candle_03_MI_Candle_0","normalTexture":{"index":1,"scale":1},"pbrMetallicRoughness":{"baseColorFactor":[0.99999988079071,0.99999988079071,0.99999988079071,1],"baseColorTexture":{"index":0},"metallicFactor":0,"roughnessFactor":0.5}},{"doubleSided":true,"extensions":{},"name":"SM_Candle_03_MI_Flame_03_1","pbrMetallicRoughness":{"baseColorFactor":[0.99999988079071,0.99999988079071,0.99999988079071,1],"baseColorTexture":{"index":2},"metallicFactor":0,"roughnessFactor":0.5}}],"meshes":[{"extras":{"targetNames":[]},"primitives":[{"attributes":{"NORMAL":2,"POSITION":0,"TANGENT":1,"TEXCOORD_0":3,"TEXCOORD_1":4},"indices":5,"material":0,"mode":4},{"attributes":{"NORMAL":8,"POSITION":6,"TANGENT":7,"TEXCOORD_0":9,"TEXCOORD_1":10},"indices":11,"material":1,"mode":4}]}],"nodes":[{"children":[1],"name":"SM_Candle_03"},{"mesh":0,"name":"Mesh"}],"samplers":[{"magFilter":9729,"minFilter":9987,"wrapS":10497,"wrapT":10497}],"scene":0,"scenes":[{"nodes":[0]}],"textures":[{"sampler":0,"source":0},{"sampler":0,"source":1},{"sampler":0,"source":2}]}