{"accessors":[{"bufferView":0,"byteOffset":0,"componentType":5126,"count":1875,"max":[0.405098438262939,0.622189462184906,0.405098438262939],"min":[-0.40509843826294,-0.00000001907349,-0.40509843826294],"normalized":false,"type":"VEC3"},{"bufferView":1,"byteOffset":0,"componentType":5126,"count":1875,"max":[1,1,1,1],"min":[-1,-0.99811536073685,-1,1],"normalized":false,"type":"VEC4"},{"bufferView":2,"byteOffset":0,"componentType":5126,"count":1875,"max":[1,1,1],"min":[-1,-1,-1],"normalized":false,"type":"VEC3"},{"bufferView":3,"byteOffset":0,"componentType":5126,"count":1875,"max":[0.97998046875,0.9970703125],"min":[0.00244140625,0.004486083984375],"normalized":false,"type":"VEC2"},{"bufferView":4,"byteOffset":0,"componentType":5126,"count":1875,"max":[0.998046875,0.998046875],"min":[0.00178813934326172,0.0051727294921875],"normalized":false,"type":"VEC2"},{"bufferView":5,"byteOffset":0,"componentType":5123,"count":5172,"max":[1368],"min":[0],"normalized":false,"type":"SCALAR"}],"asset":{"generator":"Godot Engine v4.3.stable.official@77dcf97d82cbfe4e4615475fa52ca03da645dbd8","version":"2.0"},"bufferViews":[{"buffer":0,"byteLength":22500,"byteOffset":0,"byteStride":12,"target":34962},{"buffer":0,"byteLength":30000,"byteOffset":22500,"byteStride":16,"target":34962},{"buffer":0,"byteLength":22500,"byteOffset":52500,"byteStride":12,"target":34962},{"buffer":0,"byteLength":15000,"byteOffset":75000,"byteStride":8,"target":34962},{"buffer":0,"byteLength":15000,"byteOffset":90000,"byteStride":8,"target":34962},{"buffer":0,"byteLength":10344,"byteOffset":105000,"target":34963}],"buffers":[{"byteLength":115344,"uri":"SM_Cauldron_020.bin"}],"extensionsUsed":["GODOT_single_root"],"images":[{"uri":"textures%2FSM_Cauldron_02_MI_Cauldrons_0_albedo.png"},{"uri":"textures%2FSM_Cauldron_02_MI_Cauldrons_0_orm.png"},{"uri":"textures%2FSM_Cauldron_02_MI_Cauldrons_0_normal.png"}],"materials":[{"extensions":{},"name":"SM_Cauldron_02_MI_Cauldrons_0","normalTexture":{"index":2,"scale":1},"pbrMetallicRoughness":{"baseColorFactor":[0.99999988079071,0.99999988079071,0.99999988079071,1],"baseColorTexture":{"index":0},"metallicFactor":1,"metallicRoughnessTexture":{"index":1},"roughnessFactor":0.5}}],"meshes":[{"extras":{"targetNames":[]},"primitives":[{"attributes":{"NORMAL":2,"POSITION":0,"TANGENT":1,"TEXCOORD_0":3,"TEXCOORD_1":4},"indices":5,"material":0,"mode":4}]}],"nodes":[{"children":[1],"name":"SM_Cauldron_02"},{"mesh":0,"name":"Mesh"}],"samplers":[{"magFilter":9729,"minFilter":9987,"wrapS":10497,"wrapT":10497}],"scene":0,"scenes":[{"nodes":[0]}],"textures":[{"sampler":0,"source":0},{"sampler":0,"source":1},{"sampler":0,"source":2}]}