{"accessors":[{"bufferView":0,"byteOffset":0,"componentType":5126,"count":320,"max":[0.395739436149597,0.486638516187668,0.408397316932678],"min":[-0.3957394361496,-0.00000010566787,-0.40839731693268],"normalized":false,"type":"VEC3"},{"bufferView":1,"byteOffset":0,"componentType":5126,"count":320,"max":[1,0.980513393878937,1,1],"min":[-1,-0.99509274959564,-1,-1],"normalized":false,"type":"VEC4"},{"bufferView":2,"byteOffset":0,"componentType":5126,"count":320,"max":[0.999690592288971,1,0.999721646308899],"min":[-0.9997216463089,-1,-0.9991962313652],"normalized":false,"type":"VEC3"},{"bufferView":3,"byteOffset":0,"componentType":5126,"count":320,"max":[0.9970703125,0.998046875],"min":[0.00156307220458984,0.00219535827636719],"normalized":false,"type":"VEC2"},{"bufferView":4,"byteOffset":0,"componentType":5126,"count":320,"max":[0.998046875,0.998046875],"min":[0.00153064727783203,0.00313758850097656],"normalized":false,"type":"VEC2"},{"bufferView":5,"byteOffset":0,"componentType":5123,"count":444,"max":[295],"min":[0],"normalized":false,"type":"SCALAR"}],"asset":{"generator":"Godot Engine v4.3.stable.official@77dcf97d82cbfe4e4615475fa52ca03da645dbd8","version":"2.0"},"bufferViews":[{"buffer":0,"byteLength":3840,"byteOffset":0,"byteStride":12,"target":34962},{"buffer":0,"byteLength":5120,"byteOffset":3840,"byteStride":16,"target":34962},{"buffer":0,"byteLength":3840,"byteOffset":8960,"byteStride":12,"target":34962},{"buffer":0,"byteLength":2560,"byteOffset":12800,"byteStride":8,"target":34962},{"buffer":0,"byteLength":2560,"byteOffset":15360,"byteStride":8,"target":34962},{"buffer":0,"byteLength":888,"byteOffset":17920,"target":34963}],"buffers":[{"byteLength":18808,"uri":"SM_Chair_020.bin"}],"extensionsUsed":["GODOT_single_root"],"images":[{"uri":"textures%2FSM_Chair_02_MI_Chairs_0_albedo.png"},{"uri":"textures%2FSM_Chair_02_MI_Chairs_0_normal.png"}],"materials":[{"extensions":{},"name":"SM_Chair_02_MI_Chairs_0","normalTexture":{"index":1,"scale":1},"pbrMetallicRoughness":{"baseColorFactor":[0.99999988079071,0.99999988079071,0.99999988079071,1],"baseColorTexture":{"index":0},"metallicFactor":0,"roughnessFactor":0.490195989608765}}],"meshes":[{"extras":{"targetNames":[]},"primitives":[{"attributes":{"NORMAL":2,"POSITION":0,"TANGENT":1,"TEXCOORD_0":3,"TEXCOORD_1":4},"indices":5,"material":0,"mode":4}]}],"nodes":[{"children":[1],"name":"SM_Chair_02"},{"mesh":0,"name":"Mesh"}],"samplers":[{"magFilter":9729,"minFilter":9987,"wrapS":10497,"wrapT":10497}],"scene":0,"scenes":[{"nodes":[0]}],"textures":[{"sampler":0,"source":0},{"sampler":0,"source":1}]}