{"accessors":[{"bufferView":0,"byteOffset":0,"componentType":5126,"count":25,"max":[0.00000185954638709518,4.00000047683716,3.99999976158142],"min":[-0.00000004371139,0,-0.00000065168268],"normalized":false,"type":"VEC3"},{"bufferView":1,"byteOffset":0,"componentType":5126,"count":25,"max":[0.0001220703125,0.0000305817193293478,0.866049468517303,1],"min":[-0.4999583363533,0.0000132150680656196,-0.99999994039536,-1],"normalized":false,"type":"VEC4"},{"bufferView":2,"byteOffset":0,"componentType":5126,"count":25,"max":[-0.8660494685173,-0.00002288789619,-0.00012207032705],"min":[-1,-0.00003045436097,-0.4999583363533],"normalized":false,"type":"VEC3"},{"bufferView":3,"byteOffset":0,"componentType":5126,"count":25,"max":[1,1],"min":[0,0],"normalized":false,"type":"VEC2"},{"bufferView":4,"byteOffset":0,"componentType":5126,"count":25,"max":[0.988281071186066,0.99414050579071],"min":[0.499748229980469,0.505851805210114],"normalized":false,"type":"VEC2"},{"bufferView":5,"byteOffset":0,"componentType":5123,"count":66,"max":[24],"min":[0],"normalized":false,"type":"SCALAR"},{"bufferView":6,"byteOffset":0,"componentType":5126,"count":25,"max":[0.200001865625381,4.00000047683716,4],"min":[0.199999958276749,-0.00000000000003,-0.00000084241753],"normalized":false,"type":"VEC3"},{"bufferView":7,"byteOffset":0,"componentType":5126,"count":25,"max":[0.0000239173550653504,0.0000152590218931437,-0.8660494685173,1],"min":[-0.4999583363533,0.0000132150680656196,-1,1],"normalized":false,"type":"VEC4"},{"bufferView":8,"byteOffset":0,"componentType":5126,"count":25,"max":[1,0.0000228878961934242,0.0000239175878959941],"min":[0.866049468517303,0.0000152586571857682,-0.4999583363533],"normalized":false,"type":"VEC3"},{"bufferView":9,"byteOffset":0,"componentType":5126,"count":25,"max":[1.5,1.5],"min":[-0.50004577636719,-0.50004577636719],"normalized":false,"type":"VEC2"},{"bufferView":10,"byteOffset":0,"componentType":5126,"count":25,"max":[0.5,0.994140625],"min":[0.0117112994194031,0.505830764770508],"normalized":false,"type":"VEC2"},{"bufferView":11,"byteOffset":0,"componentType":5123,"count":66,"max":[24],"min":[0],"normalized":false,"type":"SCALAR"}],"asset":{"generator":"Godot Engine v4.3.stable.official@77dcf97d82cbfe4e4615475fa52ca03da645dbd8","version":"2.0"},"bufferViews":[{"buffer":0,"byteLength":300,"byteOffset":0,"byteStride":12,"target":34962},{"buffer":0,"byteLength":400,"byteOffset":300,"byteStride":16,"target":34962},{"buffer":0,"byteLength":300,"byteOffset":700,"byteStride":12,"target":34962},{"buffer":0,"byteLength":200,"byteOffset":1000,"byteStride":8,"target":34962},{"buffer":0,"byteLength":200,"byteOffset":1200,"byteStride":8,"target":34962},{"buffer":0,"byteLength":132,"byteOffset":1400,"target":34963},{"buffer":0,"byteLength":300,"byteOffset":1532,"byteStride":12,"target":34962},{"buffer":0,"byteLength":400,"byteOffset":1832,"byteStride":16,"target":34962},{"buffer":0,"byteLength":300,"byteOffset":2232,"byteStride":12,"target":34962},{"buffer":0,"byteLength":200,"byteOffset":2532,"byteStride":8,"target":34962},{"buffer":0,"byteLength":200,"byteOffset":2732,"byteStride":8,"target":34962},{"buffer":0,"byteLength":132,"byteOffset":2932,"target":34963}],"buffers":[{"byteLength":3064,"uri":"SM_Door_Wall_030.bin"}],"extensionsUsed":["GODOT_single_root"],"images":[{"uri":"textures%2FSM_Door_Wall_03_MI_Tavern_TrimSheet_01_0_albedo.png"},{"uri":"textures%2FSM_Door_Wall_03_MI_Tavern_TrimSheet_01_0_normal.png"},{"uri":"textures%2FSM_Door_Wall_03_MI_TrimSheet_Wood_02_1_albedo.png"},{"uri":"textures%2FSM_Door_Wall_03_MI_TrimSheet_Wood_02_1_normal.png"}],"materials":[{"doubleSided":true,"extensions":{},"name":"SM_Door_Wall_03_MI_Tavern_TrimSheet_01_0","normalTexture":{"index":1,"scale":1},"pbrMetallicRoughness":{"baseColorFactor":[0.99999988079071,0.99999988079071,0.99999988079071,1],"baseColorTexture":{"index":0},"metallicFactor":0,"roughnessFactor":0.5}},{"doubleSided":true,"extensions":{},"name":"SM_Door_Wall_03_MI_TrimSheet_Wood_02_1","normalTexture":{"index":3,"scale":1},"pbrMetallicRoughness":{"baseColorFactor":[0.99999988079071,0.99999988079071,0.99999988079071,1],"baseColorTexture":{"index":2},"metallicFactor":0,"roughnessFactor":0.5}}],"meshes":[{"extras":{"targetNames":[]},"primitives":[{"attributes":{"NORMAL":2,"POSITION":0,"TANGENT":1,"TEXCOORD_0":3,"TEXCOORD_1":4},"indices":5,"material":0,"mode":4},{"attributes":{"NORMAL":8,"POSITION":6,"TANGENT":7,"TEXCOORD_0":9,"TEXCOORD_1":10},"indices":11,"material":1,"mode":4}]}],"nodes":[{"children":[1],"name":"SM_Door_Wall_03"},{"mesh":0,"name":"Mesh"}],"samplers":[{"magFilter":9729,"minFilter":9987,"wrapS":10497,"wrapT":10497}],"scene":0,"scenes":[{"nodes":[0]}],"textures":[{"sampler":0,"source":0},{"sampler":0,"source":1},{"sampler":0,"source":2},{"sampler":0,"source":3}]}