{"accessors":[{"bufferView":0,"byteOffset":0,"componentType":5126,"count":102,"max":[0.843665301799774,0.380851060152054,0.0490409880876541],"min":[-0.84366530179977,-0.38085106015205,-0.02904098667204],"normalized":false,"type":"VEC3"},{"bufferView":1,"byteOffset":0,"componentType":5126,"count":102,"max":[1,1,1,1],"min":[-1,-0.04733869805932,-1,1],"normalized":false,"type":"VEC4"},{"bufferView":2,"byteOffset":0,"componentType":5126,"count":102,"max":[1,1,1],"min":[-1,-1,-1],"normalized":false,"type":"VEC3"},{"bufferView":3,"byteOffset":0,"componentType":5126,"count":102,"max":[0.997558534145355,0.998046815395355],"min":[0.00956740695983171,0.00895704608410597],"normalized":false,"type":"VEC2"},{"bufferView":4,"byteOffset":0,"componentType":5126,"count":102,"max":[0.986816227436066,0.998046815395355],"min":[0.00180056458339095,0.00180056458339095],"normalized":false,"type":"VEC2"},{"bufferView":5,"byteOffset":0,"componentType":5123,"count":180,"max":[87],"min":[0],"normalized":false,"type":"SCALAR"}],"asset":{"generator":"Godot Engine v4.3.stable.official@77dcf97d82cbfe4e4615475fa52ca03da645dbd8","version":"2.0"},"bufferViews":[{"buffer":0,"byteLength":1224,"byteOffset":0,"byteStride":12,"target":34962},{"buffer":0,"byteLength":1632,"byteOffset":1224,"byteStride":16,"target":34962},{"buffer":0,"byteLength":1224,"byteOffset":2856,"byteStride":12,"target":34962},{"buffer":0,"byteLength":816,"byteOffset":4080,"byteStride":8,"target":34962},{"buffer":0,"byteLength":816,"byteOffset":4896,"byteStride":8,"target":34962},{"buffer":0,"byteLength":360,"byteOffset":5712,"target":34963}],"buffers":[{"byteLength":6072,"uri":"SM_Frame_010.bin"}],"extensionsUsed":["GODOT_single_root"],"images":[{"uri":"textures%2FSM_Frame_01_MI_Candelabra_Frames_0_albedo.png"},{"uri":"textures%2FSM_Frame_01_MI_Candelabra_Frames_0_normal.png"}],"materials":[{"extensions":{},"name":"SM_Frame_01_MI_Candelabra_Frames_0","normalTexture":{"index":1,"scale":1},"pbrMetallicRoughness":{"baseColorFactor":[0.99999988079071,0.99999988079071,0.99999988079071,1],"baseColorTexture":{"index":0},"metallicFactor":0,"roughnessFactor":0.5}}],"meshes":[{"extras":{"targetNames":[]},"primitives":[{"attributes":{"NORMAL":2,"POSITION":0,"TANGENT":1,"TEXCOORD_0":3,"TEXCOORD_1":4},"indices":5,"material":0,"mode":4}]}],"nodes":[{"children":[1],"name":"SM_Frame_01"},{"mesh":0,"name":"Mesh"}],"samplers":[{"magFilter":9729,"minFilter":9987,"wrapS":10497,"wrapT":10497}],"scene":0,"scenes":[{"nodes":[0]}],"textures":[{"sampler":0,"source":0},{"sampler":0,"source":1}]}