{"accessors":[{"bufferView":0,"byteOffset":0,"componentType":5126,"count":719,"max":[0.166399374604225,0.334569036960602,0.486500352621078],"min":[-0.16639989614487,-0.00000014854606,-0.48650047183037],"normalized":false,"type":"VEC3"},{"bufferView":1,"byteOffset":0,"componentType":5126,"count":719,"max":[0.99938040971756,0.998947620391846,0.952637076377869,1],"min":[-0.99975258111954,-0.99845153093338,-1,1],"normalized":false,"type":"VEC4"},{"bufferView":2,"byteOffset":0,"componentType":5126,"count":719,"max":[1,1,1],"min":[-1,-0.99947309494019,-1],"normalized":false,"type":"VEC3"},{"bufferView":3,"byteOffset":0,"componentType":5126,"count":719,"max":[0.99560546875,0.99560546875],"min":[0.00405120849609375,0.0071868896484375],"normalized":false,"type":"VEC2"},{"bufferView":4,"byteOffset":0,"componentType":5126,"count":719,"max":[0.96826171875,0.998046875],"min":[0.00175571441650391,0.00156211853027344],"normalized":false,"type":"VEC2"},{"bufferView":5,"byteOffset":0,"componentType":5123,"count":2148,"max":[589],"min":[0],"normalized":false,"type":"SCALAR"}],"asset":{"generator":"Godot Engine v4.3.stable.official@77dcf97d82cbfe4e4615475fa52ca03da645dbd8","version":"2.0"},"bufferViews":[{"buffer":0,"byteLength":8628,"byteOffset":0,"byteStride":12,"target":34962},{"buffer":0,"byteLength":11504,"byteOffset":8628,"byteStride":16,"target":34962},{"buffer":0,"byteLength":8628,"byteOffset":20132,"byteStride":12,"target":34962},{"buffer":0,"byteLength":5752,"byteOffset":28760,"byteStride":8,"target":34962},{"buffer":0,"byteLength":5752,"byteOffset":34512,"byteStride":8,"target":34962},{"buffer":0,"byteLength":4296,"byteOffset":40264,"target":34963}],"buffers":[{"byteLength":44560,"uri":"SM_FireWood0.bin"}],"extensionsUsed":["GODOT_single_root"],"images":[{"uri":"textures%2FSM_FireWood_MI_KitchenProps_0_albedo.png"},{"uri":"textures%2FSM_FireWood_MI_KitchenProps_0_orm.png"},{"uri":"textures%2FSM_FireWood_MI_KitchenProps_0_normal.png"}],"materials":[{"extensions":{},"name":"SM_FireWood_MI_KitchenProps_0","normalTexture":{"index":2,"scale":1},"pbrMetallicRoughness":{"baseColorFactor":[0.99999988079071,0.99999988079071,0.99999988079071,1],"baseColorTexture":{"index":0},"metallicFactor":1,"metallicRoughnessTexture":{"index":1},"roughnessFactor":0.5}}],"meshes":[{"extras":{"targetNames":[]},"primitives":[{"attributes":{"NORMAL":2,"POSITION":0,"TANGENT":1,"TEXCOORD_0":3,"TEXCOORD_1":4},"indices":5,"material":0,"mode":4}]}],"nodes":[{"children":[1],"name":"SM_FireWood"},{"mesh":0,"name":"Mesh"}],"samplers":[{"magFilter":9729,"minFilter":9987,"wrapS":10497,"wrapT":10497}],"scene":0,"scenes":[{"nodes":[0]}],"textures":[{"sampler":0,"source":0},{"sampler":0,"source":1},{"sampler":0,"source":2}]}