{"accessors":[{"bufferView":0,"byteOffset":0,"componentType":5126,"count":4575,"max":[3.01511287689209,2.07607841491699,0.822305202484131],"min":[-0.00000044656917,-0.01394319534302,-0.00000089905819],"normalized":false,"type":"VEC3"},{"bufferView":1,"byteOffset":0,"componentType":5126,"count":4575,"max":[1,1,1,1],"min":[-1,-0.99996936321259,-1,-1],"normalized":false,"type":"VEC4"},{"bufferView":2,"byteOffset":0,"componentType":5126,"count":4575,"max":[1,1,1],"min":[-1,-0.99996936321259,-1],"normalized":false,"type":"VEC3"},{"bufferView":3,"byteOffset":0,"componentType":5126,"count":4575,"max":[1.8671875,1.2236328125],"min":[-0.8662109375,-0.27294921875],"normalized":false,"type":"VEC2"},{"bufferView":4,"byteOffset":0,"componentType":5126,"count":4575,"max":[0.99755859375,0.99755859375],"min":[0.00225448608398438,0.02783203125],"normalized":false,"type":"VEC2"},{"bufferView":5,"byteOffset":0,"componentType":5123,"count":11442,"max":[3212],"min":[0],"normalized":false,"type":"SCALAR"},{"bufferView":6,"byteOffset":0,"componentType":5126,"count":629,"max":[2.91712856292725,2.11034107208252,0.693892121315002],"min":[0.097983717918396,0.121509224176407,-0.00000092825428],"normalized":false,"type":"VEC3"},{"bufferView":7,"byteOffset":0,"componentType":5126,"count":629,"max":[1,1,1,1],"min":[-1,-0.99550157785416,-1,1],"normalized":false,"type":"VEC4"},{"bufferView":8,"byteOffset":0,"componentType":5126,"count":629,"max":[1,1,1],"min":[-1,-1,-0.00006467670028],"normalized":false,"type":"VEC3"},{"bufferView":9,"byteOffset":0,"componentType":5126,"count":629,"max":[0.99462890625,0.99462890625],"min":[0.00531768798828125,0.0206298828125],"normalized":false,"type":"VEC2"},{"bufferView":10,"byteOffset":0,"componentType":5126,"count":629,"max":[0.9541015625,0.99755859375],"min":[0.00225830078125,0.00229072570800781],"normalized":false,"type":"VEC2"},{"bufferView":11,"byteOffset":0,"componentType":5123,"count":2316,"max":[536],"min":[0],"normalized":false,"type":"SCALAR"}],"asset":{"generator":"Godot Engine v4.3.stable.official@77dcf97d82cbfe4e4615475fa52ca03da645dbd8","version":"2.0"},"bufferViews":[{"buffer":0,"byteLength":54900,"byteOffset":0,"byteStride":12,"target":34962},{"buffer":0,"byteLength":73200,"byteOffset":54900,"byteStride":16,"target":34962},{"buffer":0,"byteLength":54900,"byteOffset":128100,"byteStride":12,"target":34962},{"buffer":0,"byteLength":36600,"byteOffset":183000,"byteStride":8,"target":34962},{"buffer":0,"byteLength":36600,"byteOffset":219600,"byteStride":8,"target":34962},{"buffer":0,"byteLength":22884,"byteOffset":256200,"target":34963},{"buffer":0,"byteLength":7548,"byteOffset":279084,"byteStride":12,"target":34962},{"buffer":0,"byteLength":10064,"byteOffset":286632,"byteStride":16,"target":34962},{"buffer":0,"byteLength":7548,"byteOffset":296696,"byteStride":12,"target":34962},{"buffer":0,"byteLength":5032,"byteOffset":304244,"byteStride":8,"target":34962},{"buffer":0,"byteLength":5032,"byteOffset":309276,"byteStride":8,"target":34962},{"buffer":0,"byteLength":4632,"byteOffset":314308,"target":34963}],"buffers":[{"byteLength":318940,"uri":"SM_FirePlace0.bin"}],"extensionsUsed":["GODOT_single_root"],"images":[{"uri":"textures%2FSM_FirePlace_MI_Fireplace_01_0_albedo.png"},{"uri":"textures%2FSM_FirePlace_MI_Fireplace_01_0_normal.png"},{"uri":"textures%2FSM_FirePlace_MI_Tavern_Plaster_1_albedo.png"},{"uri":"textures%2FSM_FirePlace_MI_Tavern_Plaster_1_normal.png"}],"materials":[{"extensions":{},"name":"SM_FirePlace_MI_Fireplace_01_0","normalTexture":{"index":1,"scale":1},"pbrMetallicRoughness":{"baseColorFactor":[0.99999988079071,0.99999988079071,0.99999988079071,1],"baseColorTexture":{"index":0},"metallicFactor":0,"roughnessFactor":0.5}},{"extensions":{},"name":"SM_FirePlace_MI_Tavern_Plaster_1","normalTexture":{"index":3,"scale":1},"pbrMetallicRoughness":{"baseColorFactor":[0.99999988079071,0.99999988079071,0.99999988079071,1],"baseColorTexture":{"index":2},"metallicFactor":0,"roughnessFactor":0.5}}],"meshes":[{"extras":{"targetNames":[]},"primitives":[{"attributes":{"NORMAL":2,"POSITION":0,"TANGENT":1,"TEXCOORD_0":3,"TEXCOORD_1":4},"indices":5,"material":0,"mode":4},{"attributes":{"NORMAL":8,"POSITION":6,"TANGENT":7,"TEXCOORD_0":9,"TEXCOORD_1":10},"indices":11,"material":1,"mode":4}]}],"nodes":[{"children":[1],"name":"SM_FirePlace"},{"mesh":0,"name":"Mesh"}],"samplers":[{"magFilter":9729,"minFilter":9987,"wrapS":10497,"wrapT":10497}],"scene":0,"scenes":[{"nodes":[0]}],"textures":[{"sampler":0,"source":0},{"sampler":0,"source":1},{"sampler":0,"source":2},{"sampler":0,"source":3}]}