{"accessors":[{"bufferView":0,"byteOffset":0,"componentType":5126,"count":6995,"max":[0.565594673156738,1.56918382644653,0.565594375133514],"min":[-0.56559473276138,0.00781370978802443,-0.56559509038925],"normalized":false,"type":"VEC3"},{"bufferView":1,"byteOffset":0,"componentType":5126,"count":6995,"max":[1,1,1,1],"min":[-1,-1,-1,-1],"normalized":false,"type":"VEC4"},{"bufferView":2,"byteOffset":0,"componentType":5126,"count":6995,"max":[1,1,1],"min":[-1,-1,-1],"normalized":false,"type":"VEC3"},{"bufferView":3,"byteOffset":0,"componentType":5126,"count":6995,"max":[0.99658203125,0.99658203125],"min":[0.00330543518066406,0.0141220092773438],"normalized":false,"type":"VEC2"},{"bufferView":4,"byteOffset":0,"componentType":5126,"count":6995,"max":[0.99609375,0.998046875],"min":[0.00194072723388672,0.00197982788085938],"normalized":false,"type":"VEC2"},{"bufferView":5,"byteOffset":0,"componentType":5123,"count":13794,"max":[5011],"min":[0],"normalized":false,"type":"SCALAR"}],"asset":{"generator":"Godot Engine v4.3.stable.official@77dcf97d82cbfe4e4615475fa52ca03da645dbd8","version":"2.0"},"bufferViews":[{"buffer":0,"byteLength":83940,"byteOffset":0,"byteStride":12,"target":34962},{"buffer":0,"byteLength":111920,"byteOffset":83940,"byteStride":16,"target":34962},{"buffer":0,"byteLength":83940,"byteOffset":195860,"byteStride":12,"target":34962},{"buffer":0,"byteLength":55960,"byteOffset":279800,"byteStride":8,"target":34962},{"buffer":0,"byteLength":55960,"byteOffset":335760,"byteStride":8,"target":34962},{"buffer":0,"byteLength":27588,"byteOffset":391720,"target":34963}],"buffers":[{"byteLength":419308,"uri":"SM_Globe0.bin"}],"extensionsUsed":["GODOT_single_root"],"images":[{"uri":"textures%2FSM_Globe_MI_Globe_0_albedo.png"},{"uri":"textures%2FSM_Globe_MI_Globe_0_normal.png"}],"materials":[{"extensions":{},"name":"SM_Globe_MI_Globe_0","normalTexture":{"index":1,"scale":1},"pbrMetallicRoughness":{"baseColorFactor":[0.99999988079071,0.99999988079071,0.99999988079071,1],"baseColorTexture":{"index":0},"metallicFactor":0,"roughnessFactor":0.5}}],"meshes":[{"extras":{"targetNames":[]},"primitives":[{"attributes":{"NORMAL":2,"POSITION":0,"TANGENT":1,"TEXCOORD_0":3,"TEXCOORD_1":4},"indices":5,"material":0,"mode":4}]}],"nodes":[{"children":[1],"name":"SM_Globe"},{"mesh":0,"name":"Mesh"}],"samplers":[{"magFilter":9729,"minFilter":9987,"wrapS":10497,"wrapT":10497}],"scene":0,"scenes":[{"nodes":[0]}],"textures":[{"sampler":0,"source":0},{"sampler":0,"source":1}]}