{"accessors":[{"bufferView":0,"byteOffset":0,"componentType":5126,"count":748,"max":[0.152760580182076,0.0305496472865343,0.213148832321167],"min":[-0.15907800197601,0.000295755220577121,-0.23858767747879],"normalized":false,"type":"VEC3"},{"bufferView":1,"byteOffset":0,"componentType":5126,"count":748,"max":[0.190033540129662,0.915358901023865,1,1],"min":[-0.20522969961166,-0.9964234828949,-0.08637049049139,1],"normalized":false,"type":"VEC4"},{"bufferView":2,"byteOffset":0,"componentType":5126,"count":748,"max":[0.173460826277733,0.999876320362091,0.996423363685608],"min":[-0.24479700624943,-0.08690641820431,-0.91540223360062],"normalized":false,"type":"VEC3"},{"bufferView":3,"byteOffset":0,"componentType":5126,"count":748,"max":[0.57666015625,0.99658203125],"min":[0.002838134765625,0.6123046875],"normalized":false,"type":"VEC2"},{"bufferView":4,"byteOffset":0,"componentType":5126,"count":748,"max":[0.6669921875,0.99365234375],"min":[0.0060577392578125,0.00629806518554688],"normalized":false,"type":"VEC2"},{"bufferView":5,"byteOffset":0,"componentType":5123,"count":816,"max":[737],"min":[0],"normalized":false,"type":"SCALAR"}],"asset":{"generator":"Godot Engine v4.3.stable.official@77dcf97d82cbfe4e4615475fa52ca03da645dbd8","version":"2.0"},"bufferViews":[{"buffer":0,"byteLength":8976,"byteOffset":0,"byteStride":12,"target":34962},{"buffer":0,"byteLength":11968,"byteOffset":8976,"byteStride":16,"target":34962},{"buffer":0,"byteLength":8976,"byteOffset":20944,"byteStride":12,"target":34962},{"buffer":0,"byteLength":5984,"byteOffset":29920,"byteStride":8,"target":34962},{"buffer":0,"byteLength":5984,"byteOffset":35904,"byteStride":8,"target":34962},{"buffer":0,"byteLength":1632,"byteOffset":41888,"target":34963}],"buffers":[{"byteLength":43520,"uri":"SM_Paper0.bin"}],"extensionsUsed":["GODOT_single_root"],"images":[{"uri":"textures%2FSM_Paper_MI_PropSet_02_0_albedo.png"},{"uri":"textures%2FSM_Paper_MI_PropSet_02_0_normal.png"}],"materials":[{"alphaCutoff":0.5,"alphaMode":"MASK","doubleSided":true,"extensions":{},"name":"SM_Paper_MI_PropSet_02_0","normalTexture":{"index":1,"scale":1},"pbrMetallicRoughness":{"baseColorFactor":[0.99999988079071,0.99999988079071,0.99999988079071,1],"baseColorTexture":{"index":0},"metallicFactor":0,"roughnessFactor":0.5}}],"meshes":[{"extras":{"targetNames":[]},"primitives":[{"attributes":{"NORMAL":2,"POSITION":0,"TANGENT":1,"TEXCOORD_0":3,"TEXCOORD_1":4},"indices":5,"material":0,"mode":4}]}],"nodes":[{"children":[1],"name":"SM_Paper"},{"mesh":0,"name":"Mesh"}],"samplers":[{"magFilter":9729,"minFilter":9987,"wrapS":10497,"wrapT":10497}],"scene":0,"scenes":[{"nodes":[0]}],"textures":[{"sampler":0,"source":0},{"sampler":0,"source":1}]}