{"accessors":[{"bufferView":0,"byteOffset":0,"componentType":5126,"count":1219,"max":[0.199329376220703,0.0459284670650959,0.0310139488428831],"min":[-0.19499066472054,-0.00169039680623,-0.02751181274652],"normalized":false,"type":"VEC3"},{"bufferView":1,"byteOffset":0,"componentType":5126,"count":1219,"max":[0.849332451820374,0.994600772857666,0.996883511543274,1],"min":[-1,-0.99894887208939,-0.99360191822052,1],"normalized":false,"type":"VEC4"},{"bufferView":2,"byteOffset":0,"componentType":5126,"count":1219,"max":[0.999969124794006,0.999937772750854,0.996238231658936],"min":[-1,-0.9999692440033,-0.99623960256577],"normalized":false,"type":"VEC3"},{"bufferView":3,"byteOffset":0,"componentType":5126,"count":1219,"max":[0.99267578125,0.99755859375],"min":[0.00196456909179688,0.0019683837890625],"normalized":false,"type":"VEC2"},{"bufferView":4,"byteOffset":0,"componentType":5126,"count":1219,"max":[0.9970703125,0.9970703125],"min":[0.00251579284667969,0.064208984375],"normalized":false,"type":"VEC2"},{"bufferView":5,"byteOffset":0,"componentType":5123,"count":2784,"max":[713],"min":[0],"normalized":false,"type":"SCALAR"}],"asset":{"generator":"Godot Engine v4.3.stable.official@77dcf97d82cbfe4e4615475fa52ca03da645dbd8","version":"2.0"},"bufferViews":[{"buffer":0,"byteLength":14628,"byteOffset":0,"byteStride":12,"target":34962},{"buffer":0,"byteLength":19504,"byteOffset":14628,"byteStride":16,"target":34962},{"buffer":0,"byteLength":14628,"byteOffset":34132,"byteStride":12,"target":34962},{"buffer":0,"byteLength":9752,"byteOffset":48760,"byteStride":8,"target":34962},{"buffer":0,"byteLength":9752,"byteOffset":58512,"byteStride":8,"target":34962},{"buffer":0,"byteLength":5568,"byteOffset":68264,"target":34963}],"buffers":[{"byteLength":73832,"uri":"SM_Paper_020.bin"}],"extensionsUsed":["GODOT_single_root"],"images":[{"uri":"textures%2FSM_Paper_02_MI_Papers_0_albedo.png"},{"uri":"textures%2FSM_Paper_02_MI_Papers_0_normal.png"}],"materials":[{"extensions":{},"name":"SM_Paper_02_MI_Papers_0","normalTexture":{"index":1,"scale":1},"pbrMetallicRoughness":{"baseColorFactor":[0.99999988079071,0.99999988079071,0.99999988079071,1],"baseColorTexture":{"index":0},"metallicFactor":0,"roughnessFactor":0.5}}],"meshes":[{"extras":{"targetNames":[]},"primitives":[{"attributes":{"NORMAL":2,"POSITION":0,"TANGENT":1,"TEXCOORD_0":3,"TEXCOORD_1":4},"indices":5,"material":0,"mode":4}]}],"nodes":[{"children":[1],"name":"SM_Paper_02"},{"mesh":0,"name":"Mesh"}],"samplers":[{"magFilter":9729,"minFilter":9987,"wrapS":10497,"wrapT":10497}],"scene":0,"scenes":[{"nodes":[0]}],"textures":[{"sampler":0,"source":0},{"sampler":0,"source":1}]}