{"accessors":[{"bufferView":0,"byteOffset":0,"componentType":5126,"count":1120,"max":[0.19446836411953,0.0524977818131447,0.0265501365065575],"min":[-0.19446635246277,-0.00015651162539,-0.0259576831013],"normalized":false,"type":"VEC3"},{"bufferView":1,"byteOffset":0,"componentType":5126,"count":1120,"max":[0.949882984161377,1,0.999969124794006,1],"min":[-1,-1,-1,1],"normalized":false,"type":"VEC4"},{"bufferView":2,"byteOffset":0,"componentType":5126,"count":1120,"max":[1,0.997390151023865,0.999968886375427],"min":[-1,-1,-0.99996900558472],"normalized":false,"type":"VEC3"},{"bufferView":3,"byteOffset":0,"componentType":5126,"count":1120,"max":[0.9970703125,0.99755859375],"min":[0.00196266174316406,0.052978515625],"normalized":false,"type":"VEC2"},{"bufferView":4,"byteOffset":0,"componentType":5126,"count":1120,"max":[0.99658203125,0.9970703125],"min":[0.00267601013183594,0.00399017333984375],"normalized":false,"type":"VEC2"},{"bufferView":5,"byteOffset":0,"componentType":5123,"count":3240,"max":[853],"min":[0],"normalized":false,"type":"SCALAR"}],"asset":{"generator":"Godot Engine v4.3.stable.official@77dcf97d82cbfe4e4615475fa52ca03da645dbd8","version":"2.0"},"bufferViews":[{"buffer":0,"byteLength":13440,"byteOffset":0,"byteStride":12,"target":34962},{"buffer":0,"byteLength":17920,"byteOffset":13440,"byteStride":16,"target":34962},{"buffer":0,"byteLength":13440,"byteOffset":31360,"byteStride":12,"target":34962},{"buffer":0,"byteLength":8960,"byteOffset":44800,"byteStride":8,"target":34962},{"buffer":0,"byteLength":8960,"byteOffset":53760,"byteStride":8,"target":34962},{"buffer":0,"byteLength":6480,"byteOffset":62720,"target":34963}],"buffers":[{"byteLength":69200,"uri":"SM_Paper_010.bin"}],"extensionsUsed":["GODOT_single_root"],"images":[{"uri":"textures%2FSM_Paper_01_MI_Papers_0_albedo.png"},{"uri":"textures%2FSM_Paper_01_MI_Papers_0_normal.png"}],"materials":[{"extensions":{},"name":"SM_Paper_01_MI_Papers_0","normalTexture":{"index":1,"scale":1},"pbrMetallicRoughness":{"baseColorFactor":[0.99999988079071,0.99999988079071,0.99999988079071,1],"baseColorTexture":{"index":0},"metallicFactor":0,"roughnessFactor":0.5}}],"meshes":[{"extras":{"targetNames":[]},"primitives":[{"attributes":{"NORMAL":2,"POSITION":0,"TANGENT":1,"TEXCOORD_0":3,"TEXCOORD_1":4},"indices":5,"material":0,"mode":4}]}],"nodes":[{"children":[1],"name":"SM_Paper_01"},{"mesh":0,"name":"Mesh"}],"samplers":[{"magFilter":9729,"minFilter":9987,"wrapS":10497,"wrapT":10497}],"scene":0,"scenes":[{"nodes":[0]}],"textures":[{"sampler":0,"source":0},{"sampler":0,"source":1}]}