{"accessors":[{"bufferView":0,"byteOffset":0,"componentType":5126,"count":772,"max":[0.176624327898026,0.0390704907476902,0.137457922101021],"min":[-0.1564563959837,0.000649724388495088,-0.17061853408813],"normalized":false,"type":"VEC3"},{"bufferView":1,"byteOffset":0,"componentType":5126,"count":772,"max":[0.189597576856613,0.914886593818665,0.999875783920288,1],"min":[-0.20522969961166,-0.9964234828949,-0.98983174562454,1],"normalized":false,"type":"VEC4"},{"bufferView":2,"byteOffset":0,"componentType":5126,"count":772,"max":[0.180849179625511,0.999989032745361,0.996423363685608],"min":[-0.24479700624943,-0.08690641820431,-0.34674420952797],"normalized":false,"type":"VEC3"},{"bufferView":3,"byteOffset":0,"componentType":5126,"count":772,"max":[0.57666015625,0.99658203125],"min":[0.002838134765625,0.6123046875],"normalized":false,"type":"VEC2"},{"bufferView":4,"byteOffset":0,"componentType":5126,"count":772,"max":[0.8701171875,0.99365234375],"min":[0.00799560546875,0.00615692138671875],"normalized":false,"type":"VEC2"},{"bufferView":5,"byteOffset":0,"componentType":5123,"count":816,"max":[749],"min":[0],"normalized":false,"type":"SCALAR"}],"asset":{"generator":"Godot Engine v4.3.stable.official@77dcf97d82cbfe4e4615475fa52ca03da645dbd8","version":"2.0"},"bufferViews":[{"buffer":0,"byteLength":9264,"byteOffset":0,"byteStride":12,"target":34962},{"buffer":0,"byteLength":12352,"byteOffset":9264,"byteStride":16,"target":34962},{"buffer":0,"byteLength":9264,"byteOffset":21616,"byteStride":12,"target":34962},{"buffer":0,"byteLength":6176,"byteOffset":30880,"byteStride":8,"target":34962},{"buffer":0,"byteLength":6176,"byteOffset":37056,"byteStride":8,"target":34962},{"buffer":0,"byteLength":1632,"byteOffset":43232,"target":34963}],"buffers":[{"byteLength":44864,"uri":"SM_Paper_Folded0.bin"}],"extensionsUsed":["GODOT_single_root"],"images":[{"uri":"textures%2FSM_Paper_Folded_MI_PropSet_02_0_albedo.png"},{"uri":"textures%2FSM_Paper_Folded_MI_PropSet_02_0_normal.png"}],"materials":[{"alphaCutoff":0.5,"alphaMode":"MASK","doubleSided":true,"extensions":{},"name":"SM_Paper_Folded_MI_PropSet_02_0","normalTexture":{"index":1,"scale":1},"pbrMetallicRoughness":{"baseColorFactor":[0.99999988079071,0.99999988079071,0.99999988079071,1],"baseColorTexture":{"index":0},"metallicFactor":0,"roughnessFactor":0.5}}],"meshes":[{"extras":{"targetNames":[]},"primitives":[{"attributes":{"NORMAL":2,"POSITION":0,"TANGENT":1,"TEXCOORD_0":3,"TEXCOORD_1":4},"indices":5,"material":0,"mode":4}]}],"nodes":[{"children":[1],"name":"SM_Paper_Folded"},{"mesh":0,"name":"Mesh"}],"samplers":[{"magFilter":9729,"minFilter":9987,"wrapS":10497,"wrapT":10497}],"scene":0,"scenes":[{"nodes":[0]}],"textures":[{"sampler":0,"source":0},{"sampler":0,"source":1}]}