{"accessors":[{"bufferView":0,"byteOffset":0,"componentType":5126,"count":584,"max":[1,1,0.2099998742342],"min":[-0.00000000667517,0,-0.01000013016164],"normalized":false,"type":"VEC3"},{"bufferView":1,"byteOffset":0,"componentType":5126,"count":584,"max":[0.699284970760345,1,0.999969124794006,1],"min":[-0.99987632036209,-1,-0.99987554550171,1],"normalized":false,"type":"VEC4"},{"bufferView":2,"byteOffset":0,"componentType":5126,"count":584,"max":[0.999845623970032,0.999969124794006,1],"min":[-0.99984538555145,-0.99987632036209,-1],"normalized":false,"type":"VEC3"},{"bufferView":3,"byteOffset":0,"componentType":5126,"count":584,"max":[0.986328125,1.015625],"min":[0.00695037841796875,-0.01612854003906],"normalized":false,"type":"VEC2"},{"bufferView":4,"byteOffset":0,"componentType":5126,"count":584,"max":[0.99169921875,0.99267578125],"min":[0.0114593505859375,0.00799560546875],"normalized":false,"type":"VEC2"},{"bufferView":5,"byteOffset":0,"componentType":5123,"count":1206,"max":[479],"min":[0],"normalized":false,"type":"SCALAR"}],"asset":{"generator":"Godot Engine v4.3.stable.official@77dcf97d82cbfe4e4615475fa52ca03da645dbd8","version":"2.0"},"bufferViews":[{"buffer":0,"byteLength":7008,"byteOffset":0,"byteStride":12,"target":34962},{"buffer":0,"byteLength":9344,"byteOffset":7008,"byteStride":16,"target":34962},{"buffer":0,"byteLength":7008,"byteOffset":16352,"byteStride":12,"target":34962},{"buffer":0,"byteLength":4672,"byteOffset":23360,"byteStride":8,"target":34962},{"buffer":0,"byteLength":4672,"byteOffset":28032,"byteStride":8,"target":34962},{"buffer":0,"byteLength":2412,"byteOffset":32704,"target":34963}],"buffers":[{"byteLength":35116,"uri":"SM_Rail0.bin"}],"extensionsUsed":["GODOT_single_root"],"images":[{"uri":"textures%2FSM_Rail_100x100_MI_TrimSheet_Wood_01_Light_0_albedo.png"},{"uri":"textures%2FSM_Rail_100x100_MI_TrimSheet_Wood_01_Light_0_normal.png"}],"materials":[{"doubleSided":true,"extensions":{},"name":"SM_Rail_100x100_MI_TrimSheet_Wood_01_Light_0","normalTexture":{"index":1,"scale":1},"pbrMetallicRoughness":{"baseColorFactor":[0.99999988079071,0.99999988079071,0.99999988079071,1],"baseColorTexture":{"index":0},"metallicFactor":0,"roughnessFactor":0.5}}],"meshes":[{"extras":{"targetNames":[]},"primitives":[{"attributes":{"NORMAL":2,"POSITION":0,"TANGENT":1,"TEXCOORD_0":3,"TEXCOORD_1":4},"indices":5,"material":0,"mode":4}]}],"nodes":[{"children":[1],"name":"SM_Rail_100x100"},{"mesh":0,"name":"Mesh"}],"samplers":[{"magFilter":9729,"minFilter":9987,"wrapS":10497,"wrapT":10497}],"scene":0,"scenes":[{"nodes":[0]}],"textures":[{"sampler":0,"source":0},{"sampler":0,"source":1}]}