{"accessors":[{"bufferView":0,"byteOffset":0,"componentType":5126,"count":4,"max":[0,0.00000065166506146852,4],"min":[-4,-0.00000021855692,0.00000000000000000000115762099094],"normalized":false,"type":"VEC3"},{"bufferView":1,"byteOffset":0,"componentType":5126,"count":4,"max":[-0.00007331371307,-0.0000279545784,-1,-1],"min":[-0.00007331371307,-0.0000279545784,-1,-1],"normalized":false,"type":"VEC4"},{"bufferView":2,"byteOffset":0,"componentType":5126,"count":4,"max":[0.0000182092189788818,1,-0.00002789497375],"min":[0.0000182092189788818,1,-0.00002789497375],"normalized":false,"type":"VEC3"},{"bufferView":3,"byteOffset":0,"componentType":5126,"count":4,"max":[1,1],"min":[0,0],"normalized":false,"type":"VEC2"},{"bufferView":4,"byteOffset":0,"componentType":5126,"count":4,"max":[0.994628846645355,0.994628846645355],"min":[0.504875242710114,0.504875242710114],"normalized":false,"type":"VEC2"},{"bufferView":5,"byteOffset":0,"componentType":5123,"count":6,"max":[3],"min":[0],"normalized":false,"type":"SCALAR"},{"bufferView":6,"byteOffset":0,"componentType":5126,"count":4,"max":[0,-0.09999934583902,4],"min":[-4,-0.10000021755695,0.0000000162920681390233],"normalized":false,"type":"VEC3"},{"bufferView":7,"byteOffset":0,"componentType":5126,"count":4,"max":[0.00011935830116272,0.000155240297317505,-1,1],"min":[0.00011935830116272,0.000155240297317505,-1,1],"normalized":false,"type":"VEC4"},{"bufferView":8,"byteOffset":0,"componentType":5126,"count":4,"max":[0.000119298696517944,-1,-0.00015518069267],"min":[0.000119298696517944,-1,-0.00015518069267],"normalized":false,"type":"VEC3"},{"bufferView":9,"byteOffset":0,"componentType":5126,"count":4,"max":[1,1],"min":[0,0],"normalized":false,"type":"VEC2"},{"bufferView":10,"byteOffset":0,"componentType":5126,"count":4,"max":[0.494865328073502,0.994628846645355],"min":[0.00489814626052976,0.504875242710114],"normalized":false,"type":"VEC2"},{"bufferView":11,"byteOffset":0,"componentType":5123,"count":6,"max":[3],"min":[0],"normalized":false,"type":"SCALAR"}],"asset":{"generator":"Godot Engine v4.3.stable.official@77dcf97d82cbfe4e4615475fa52ca03da645dbd8","version":"2.0"},"bufferViews":[{"buffer":0,"byteLength":48,"byteOffset":0,"byteStride":12,"target":34962},{"buffer":0,"byteLength":64,"byteOffset":48,"byteStride":16,"target":34962},{"buffer":0,"byteLength":48,"byteOffset":112,"byteStride":12,"target":34962},{"buffer":0,"byteLength":32,"byteOffset":160,"byteStride":8,"target":34962},{"buffer":0,"byteLength":32,"byteOffset":192,"byteStride":8,"target":34962},{"buffer":0,"byteLength":12,"byteOffset":224,"target":34963},{"buffer":0,"byteLength":48,"byteOffset":236,"byteStride":12,"target":34962},{"buffer":0,"byteLength":64,"byteOffset":284,"byteStride":16,"target":34962},{"buffer":0,"byteLength":48,"byteOffset":348,"byteStride":12,"target":34962},{"buffer":0,"byteLength":32,"byteOffset":396,"byteStride":8,"target":34962},{"buffer":0,"byteLength":32,"byteOffset":428,"byteStride":8,"target":34962},{"buffer":0,"byteLength":12,"byteOffset":460,"target":34963}],"buffers":[{"byteLength":472,"uri":"SM_Roof_Floor0.bin"}],"extensionsUsed":["GODOT_single_root"],"images":[{"uri":"textures%2FSM_Roof_Floor_MI_TrimSheet_Wood_01_Dark_1_albedo.png"},{"uri":"textures%2FSM_Roof_Floor_MI_TrimSheet_Wood_01_Dark_1_normal.png"},{"uri":"textures%2FSM_Roof_Floor_MI_TrimSheet_Wood_01_Light_0_albedo.png"},{"uri":"textures%2FSM_Roof_Floor_MI_TrimSheet_Wood_01_Light_0_normal.png"}],"materials":[{"doubleSided":true,"extensions":{},"name":"SM_Roof_Floor_MI_TrimSheet_Wood_01_Dark_1","normalTexture":{"index":1,"scale":1},"pbrMetallicRoughness":{"baseColorFactor":[0.99999988079071,0.99999988079071,0.99999988079071,1],"baseColorTexture":{"index":0},"metallicFactor":0,"roughnessFactor":0.5}},{"doubleSided":true,"extensions":{},"name":"SM_Roof_Floor_MI_TrimSheet_Wood_01_Light_0","normalTexture":{"index":3,"scale":1},"pbrMetallicRoughness":{"baseColorFactor":[0.99999988079071,0.99999988079071,0.99999988079071,1],"baseColorTexture":{"index":2},"metallicFactor":0,"roughnessFactor":0.5}}],"meshes":[{"extras":{"targetNames":[]},"primitives":[{"attributes":{"NORMAL":2,"POSITION":0,"TANGENT":1,"TEXCOORD_0":3,"TEXCOORD_1":4},"indices":5,"material":0,"mode":4},{"attributes":{"NORMAL":8,"POSITION":6,"TANGENT":7,"TEXCOORD_0":9,"TEXCOORD_1":10},"indices":11,"material":1,"mode":4}]}],"nodes":[{"children":[1],"name":"SM_Roof_Floor"},{"mesh":0,"name":"Mesh"}],"samplers":[{"magFilter":9729,"minFilter":9987,"wrapS":10497,"wrapT":10497}],"scene":0,"scenes":[{"nodes":[0]}],"textures":[{"sampler":0,"source":0},{"sampler":0,"source":1},{"sampler":0,"source":2},{"sampler":0,"source":3}]}