{"accessors":[{"bufferView":0,"byteOffset":0,"componentType":5126,"count":4,"max":[0.00000166893005371094,4,4],"min":[-2.00000071525574,-0.00000044347252,-0],"normalized":false,"type":"VEC3"},{"bufferView":1,"byteOffset":0,"componentType":5126,"count":4,"max":[0.0000767707824707031,-0.00003685057163,-0.99999994039536,1],"min":[0.0000767707824707031,-0.00003685057163,-0.99999994039536,1],"normalized":false,"type":"VEC4"},{"bufferView":2,"byteOffset":0,"componentType":5126,"count":4,"max":[-0.89439469575882,-0.44727867841721,-0.00005227328074],"min":[-0.89439469575882,-0.44727867841721,-0.00005227328074],"normalized":false,"type":"VEC3"},{"bufferView":3,"byteOffset":0,"componentType":5126,"count":4,"max":[1.33984375,1.498046875],"min":[-0.44583767652512,-0.49829745292664],"normalized":false,"type":"VEC2"},{"bufferView":4,"byteOffset":0,"componentType":5126,"count":4,"max":[0.98828125,0.9931640625],"min":[0.499984234571457,0.447503536939621],"normalized":false,"type":"VEC2"},{"bufferView":5,"byteOffset":0,"componentType":5123,"count":6,"max":[3],"min":[0],"normalized":false,"type":"SCALAR"},{"bufferView":6,"byteOffset":0,"componentType":5126,"count":4,"max":[0.20000159740448,4,4],"min":[-1.80000054836273,-0.00000044347252,0.00000000000000119657464546594],"normalized":false,"type":"VEC3"},{"bufferView":7,"byteOffset":0,"componentType":5126,"count":4,"max":[0.447174042463303,-0.894446849823,-0.00006845593452,1],"min":[0.447174042463303,-0.894446849823,-0.00006845593452,1],"normalized":false,"type":"VEC4"},{"bufferView":8,"byteOffset":0,"componentType":5126,"count":4,"max":[0.894446969032288,0.44717413187027,0.000000298023252298663],"min":[0.894446969032288,0.44717413187027,0.000000298023252298663],"normalized":false,"type":"VEC3"},{"bufferView":9,"byteOffset":0,"componentType":5126,"count":4,"max":[1.3974609375,0.99951171875],"min":[-0.83839130401611,-1],"normalized":false,"type":"VEC2"},{"bufferView":10,"byteOffset":0,"componentType":5126,"count":4,"max":[0.5,0.9931640625],"min":[0.0117112994194031,0.447503536939621],"normalized":false,"type":"VEC2"},{"bufferView":11,"byteOffset":0,"componentType":5123,"count":6,"max":[3],"min":[0],"normalized":false,"type":"SCALAR"}],"asset":{"generator":"Godot Engine v4.3.stable.official@77dcf97d82cbfe4e4615475fa52ca03da645dbd8","version":"2.0"},"bufferViews":[{"buffer":0,"byteLength":48,"byteOffset":0,"byteStride":12,"target":34962},{"buffer":0,"byteLength":64,"byteOffset":48,"byteStride":16,"target":34962},{"buffer":0,"byteLength":48,"byteOffset":112,"byteStride":12,"target":34962},{"buffer":0,"byteLength":32,"byteOffset":160,"byteStride":8,"target":34962},{"buffer":0,"byteLength":32,"byteOffset":192,"byteStride":8,"target":34962},{"buffer":0,"byteLength":12,"byteOffset":224,"target":34963},{"buffer":0,"byteLength":48,"byteOffset":236,"byteStride":12,"target":34962},{"buffer":0,"byteLength":64,"byteOffset":284,"byteStride":16,"target":34962},{"buffer":0,"byteLength":48,"byteOffset":348,"byteStride":12,"target":34962},{"buffer":0,"byteLength":32,"byteOffset":396,"byteStride":8,"target":34962},{"buffer":0,"byteLength":32,"byteOffset":428,"byteStride":8,"target":34962},{"buffer":0,"byteLength":12,"byteOffset":460,"target":34963}],"buffers":[{"byteLength":472,"uri":"SM_Roof_010.bin"}],"extensionsUsed":["GODOT_single_root"],"images":[{"uri":"textures%2FSM_Roof_01_MI_TrimSheet_Wood_01_Light_0_albedo.png"},{"uri":"textures%2FSM_Roof_01_MI_TrimSheet_Wood_01_Light_0_normal.png"}],"materials":[{"doubleSided":true,"extensions":{},"name":"SM_Roof_01_MI_TrimSheet_Wood_01_Light_0","normalTexture":{"index":1,"scale":1},"pbrMetallicRoughness":{"baseColorFactor":[0.99999988079071,0.99999988079071,0.99999988079071,1],"baseColorTexture":{"index":0},"metallicFactor":0,"roughnessFactor":0.5}}],"meshes":[{"extras":{"targetNames":[]},"primitives":[{"attributes":{"NORMAL":2,"POSITION":0,"TANGENT":1,"TEXCOORD_0":3,"TEXCOORD_1":4},"indices":5,"material":0,"mode":4},{"attributes":{"NORMAL":8,"POSITION":6,"TANGENT":7,"TEXCOORD_0":9,"TEXCOORD_1":10},"indices":11,"material":0,"mode":4}]}],"nodes":[{"children":[1],"name":"SM_Roof_01"},{"mesh":0,"name":"Mesh"}],"samplers":[{"magFilter":9729,"minFilter":9987,"wrapS":10497,"wrapT":10497}],"scene":0,"scenes":[{"nodes":[0]}],"textures":[{"sampler":0,"source":0},{"sampler":0,"source":1}]}