{"accessors":[{"bufferView":0,"byteOffset":0,"componentType":5126,"count":1056,"max":[0.209814712405205,1.38144087791443,0.219815194606781],"min":[-0.00980858318508,0.0000000000329372987217802,0.000000776368096921942],"normalized":false,"type":"VEC3"},{"bufferView":1,"byteOffset":0,"componentType":5126,"count":1056,"max":[0.999969124794006,0.707085192203522,0.999969124794006,1],"min":[-0.99996936321259,-0.70710676908493,-1,1],"normalized":false,"type":"VEC4"},{"bufferView":2,"byteOffset":0,"componentType":5126,"count":1056,"max":[0.999938130378723,0.999752104282379,0.999938249588013],"min":[-0.99996936321259,-0.66778594255447,-0.99996900558472],"normalized":false,"type":"VEC3"},{"bufferView":3,"byteOffset":0,"componentType":5126,"count":1056,"max":[0.86083984375,1],"min":[0.149169921875,0.12646484375],"normalized":false,"type":"VEC2"},{"bufferView":4,"byteOffset":0,"componentType":5126,"count":1056,"max":[0.978515625,0.93359375],"min":[0.0252532958984375,0.09814453125],"normalized":false,"type":"VEC2"},{"bufferView":5,"byteOffset":0,"componentType":5123,"count":2214,"max":[798],"min":[0],"normalized":false,"type":"SCALAR"}],"asset":{"generator":"Godot Engine v4.3.stable.official@77dcf97d82cbfe4e4615475fa52ca03da645dbd8","version":"2.0"},"bufferViews":[{"buffer":0,"byteLength":12672,"byteOffset":0,"byteStride":12,"target":34962},{"buffer":0,"byteLength":16896,"byteOffset":12672,"byteStride":16,"target":34962},{"buffer":0,"byteLength":12672,"byteOffset":29568,"byteStride":12,"target":34962},{"buffer":0,"byteLength":8448,"byteOffset":42240,"byteStride":8,"target":34962},{"buffer":0,"byteLength":8448,"byteOffset":50688,"byteStride":8,"target":34962},{"buffer":0,"byteLength":4428,"byteOffset":59136,"target":34963}],"buffers":[{"byteLength":63564,"uri":"SM_Rail_Post0.bin"}],"extensionsUsed":["GODOT_single_root"],"images":[{"uri":"textures%2FSM_Rail_Single_MI_TrimSheet_Wood_01_Light_0_albedo.png"},{"uri":"textures%2FSM_Rail_Single_MI_TrimSheet_Wood_01_Light_0_normal.png"}],"materials":[{"doubleSided":true,"extensions":{},"name":"SM_Rail_Single_MI_TrimSheet_Wood_01_Light_0","normalTexture":{"index":1,"scale":1},"pbrMetallicRoughness":{"baseColorFactor":[0.99999988079071,0.99999988079071,0.99999988079071,1],"baseColorTexture":{"index":0},"metallicFactor":0,"roughnessFactor":0.5}}],"meshes":[{"extras":{"targetNames":[]},"primitives":[{"attributes":{"NORMAL":2,"POSITION":0,"TANGENT":1,"TEXCOORD_0":3,"TEXCOORD_1":4},"indices":5,"material":0,"mode":4}]}],"nodes":[{"children":[1],"name":"SM_Rail_Single"},{"mesh":0,"name":"Mesh"}],"samplers":[{"magFilter":9729,"minFilter":9987,"wrapS":10497,"wrapT":10497}],"scene":0,"scenes":[{"nodes":[0]}],"textures":[{"sampler":0,"source":0},{"sampler":0,"source":1}]}