{"accessors":[{"bufferView":0,"byteOffset":0,"componentType":5126,"count":1302,"max":[0.198245733976364,5.82101631164551,0.198245450854301],"min":[-0.1982454508543,-0.000000079982,-0.19824615120888],"normalized":false,"type":"VEC3"},{"bufferView":1,"byteOffset":0,"componentType":5126,"count":1302,"max":[0.996147334575653,0.511490106582642,0.996151268482208,1],"min":[-0.99615049362183,-0.50374400615692,-0.99614775180817,-1],"normalized":false,"type":"VEC4"},{"bufferView":2,"byteOffset":0,"componentType":5126,"count":1302,"max":[0.998878955841064,1,0.991020023822784],"min":[-0.99718636274338,-0.48902443051338,-0.99101775884628],"normalized":false,"type":"VEC3"},{"bufferView":3,"byteOffset":0,"componentType":5126,"count":1302,"max":[1,1],"min":[0,0],"normalized":false,"type":"VEC2"},{"bufferView":4,"byteOffset":0,"componentType":5126,"count":1302,"max":[0.59375,0.99365234375],"min":[0.00432586669921875,0.343994140625],"normalized":false,"type":"VEC2"},{"bufferView":5,"byteOffset":0,"componentType":5123,"count":3024,"max":[1079],"min":[0],"normalized":false,"type":"SCALAR"},{"bufferView":6,"byteOffset":0,"componentType":5126,"count":7271,"max":[0.195629552006722,4.22287368774414,1.52838087081909],"min":[-1.52253139019012,-0.00000023910454,-1.50000047683716],"normalized":false,"type":"VEC3"},{"bufferView":7,"byteOffset":0,"componentType":5126,"count":7271,"max":[0.999969124794006,0.915157616138458,0.999969124794006,1],"min":[-0.9999692440033,-0.99737566709518,-1,1],"normalized":false,"type":"VEC4"},{"bufferView":8,"byteOffset":0,"componentType":5126,"count":7271,"max":[0.999721646308899,0.98473858833313,0.999721646308899],"min":[-0.9997216463089,-0.98781245946884,-0.99972051382065],"normalized":false,"type":"VEC3"},{"bufferView":9,"byteOffset":0,"componentType":5126,"count":7271,"max":[0.99169921875,7.625],"min":[0.00897979736328125,-6.921875],"normalized":false,"type":"VEC2"},{"bufferView":10,"byteOffset":0,"componentType":5126,"count":7271,"max":[0.99365234375,0.99560546875],"min":[0.00431442260742188,0.00431060791015625],"normalized":false,"type":"VEC2"},{"bufferView":11,"byteOffset":0,"componentType":5123,"count":16638,"max":[7270],"min":[0],"normalized":false,"type":"SCALAR"}],"asset":{"generator":"Godot Engine v4.3.stable.official@77dcf97d82cbfe4e4615475fa52ca03da645dbd8","version":"2.0"},"bufferViews":[{"buffer":0,"byteLength":15624,"byteOffset":0,"byteStride":12,"target":34962},{"buffer":0,"byteLength":20832,"byteOffset":15624,"byteStride":16,"target":34962},{"buffer":0,"byteLength":15624,"byteOffset":36456,"byteStride":12,"target":34962},{"buffer":0,"byteLength":10416,"byteOffset":52080,"byteStride":8,"target":34962},{"buffer":0,"byteLength":10416,"byteOffset":62496,"byteStride":8,"target":34962},{"buffer":0,"byteLength":6048,"byteOffset":72912,"target":34963},{"buffer":0,"byteLength":87252,"byteOffset":78960,"byteStride":12,"target":34962},{"buffer":0,"byteLength":116336,"byteOffset":166212,"byteStride":16,"target":34962},{"buffer":0,"byteLength":87252,"byteOffset":282548,"byteStride":12,"target":34962},{"buffer":0,"byteLength":58168,"byteOffset":369800,"byteStride":8,"target":34962},{"buffer":0,"byteLength":58168,"byteOffset":427968,"byteStride":8,"target":34962},{"buffer":0,"byteLength":33276,"byteOffset":486136,"target":34963}],"buffers":[{"byteLength":519412,"uri":"SM_Stairs_Spiral_End0.bin"}],"extensionsUsed":["GODOT_single_root"],"images":[{"uri":"textures%2FSM_Stairs_Spiral_End_SM_FirePlace_MI_Tavern_Plaster_1_1_albedo.png"},{"uri":"textures%2FSM_Stairs_Spiral_End_SM_FirePlace_MI_Tavern_Plaster_1_1_normal.png"},{"uri":"textures%2FSM_Stairs_Spiral_End_MI_TrimSheet_Wood_01_Dark_0_albedo.png"},{"uri":"textures%2FSM_Stairs_Spiral_End_MI_TrimSheet_Wood_01_Dark_0_normal.png"}],"materials":[{"extensions":{},"name":"SM_Stairs_Spiral_End_SM_FirePlace_MI_Tavern_Plaster_1_1","normalTexture":{"index":1,"scale":1},"pbrMetallicRoughness":{"baseColorFactor":[0.99999988079071,0.99999988079071,0.99999988079071,1],"baseColorTexture":{"index":0},"metallicFactor":0,"roughnessFactor":0.5}},{"doubleSided":true,"extensions":{},"name":"SM_Stairs_Spiral_End_MI_TrimSheet_Wood_01_Dark_0","normalTexture":{"index":3,"scale":1},"pbrMetallicRoughness":{"baseColorFactor":[0.99999988079071,0.99999988079071,0.99999988079071,1],"baseColorTexture":{"index":2},"metallicFactor":0,"roughnessFactor":0.5}}],"meshes":[{"extras":{"targetNames":[]},"primitives":[{"attributes":{"NORMAL":2,"POSITION":0,"TANGENT":1,"TEXCOORD_0":3,"TEXCOORD_1":4},"indices":5,"material":0,"mode":4},{"attributes":{"NORMAL":8,"POSITION":6,"TANGENT":7,"TEXCOORD_0":9,"TEXCOORD_1":10},"indices":11,"material":1,"mode":4}]}],"nodes":[{"children":[1],"name":"SM_Stairs_Spiral_End"},{"mesh":0,"name":"Mesh"}],"samplers":[{"magFilter":9729,"minFilter":9987,"wrapS":10497,"wrapT":10497}],"scene":0,"scenes":[{"nodes":[0]}],"textures":[{"sampler":0,"source":0},{"sampler":0,"source":1},{"sampler":0,"source":2},{"sampler":0,"source":3}]}