{"accessors":[{"bufferView":0,"byteOffset":0,"componentType":5126,"count":34,"max":[0.198245450854301,3,0.198245465755463],"min":[-0.1982454508543,-0.000000079982,-0.19824594259262],"normalized":false,"type":"VEC3"},{"bufferView":1,"byteOffset":0,"componentType":5126,"count":34,"max":[0.991024553775787,0.0000151220165207633,0.991021335124969,1],"min":[-0.99101811647415,0.00000203982585844642,-0.99101495742798,1],"normalized":false,"type":"VEC4"},{"bufferView":2,"byteOffset":0,"componentType":5126,"count":34,"max":[0.991014957427979,0.0000303809902106877,0.991024553775787],"min":[-0.99102133512497,-0.00002999682692,-0.9910181760788],"normalized":false,"type":"VEC3"},{"bufferView":3,"byteOffset":0,"componentType":5126,"count":34,"max":[1,1],"min":[0,0.000991836423054338],"normalized":false,"type":"VEC2"},{"bufferView":4,"byteOffset":0,"componentType":5126,"count":34,"max":[0.798825025558472,0.995605409145355],"min":[0.505363523960114,0.702143907546997],"normalized":false,"type":"VEC2"},{"bufferView":5,"byteOffset":0,"componentType":5123,"count":96,"max":[33],"min":[0],"normalized":false,"type":"SCALAR"},{"bufferView":6,"byteOffset":0,"componentType":5126,"count":5632,"max":[0.195629552006722,4.22287368774414,1.52838087081909],"min":[-1.52253139019012,-0.00000023910454,-1.50000047683716],"normalized":false,"type":"VEC3"},{"bufferView":7,"byteOffset":0,"componentType":5126,"count":5632,"max":[0.999969124794006,0.827485918998718,0.999969124794006,1],"min":[-0.99993789196014,-0.99984574317932,-0.99845391511917,1],"normalized":false,"type":"VEC4"},{"bufferView":8,"byteOffset":0,"componentType":5126,"count":5632,"max":[0.999845027923584,0.999937772750854,0.999752938747406],"min":[-0.99984526634216,-0.99987632036209,-0.9997518658638],"normalized":false,"type":"VEC3"},{"bufferView":9,"byteOffset":0,"componentType":5126,"count":5632,"max":[0.99169921875,7.625],"min":[0.00897979736328125,-6.921875],"normalized":false,"type":"VEC2"},{"bufferView":10,"byteOffset":0,"componentType":5126,"count":5632,"max":[0.99462890625,0.99560546875],"min":[0.00428390502929688,0.0042877197265625],"normalized":false,"type":"VEC2"},{"bufferView":11,"byteOffset":0,"componentType":5123,"count":16632,"max":[5631],"min":[0],"normalized":false,"type":"SCALAR"}],"asset":{"generator":"Godot Engine v4.3.stable.official@77dcf97d82cbfe4e4615475fa52ca03da645dbd8","version":"2.0"},"bufferViews":[{"buffer":0,"byteLength":408,"byteOffset":0,"byteStride":12,"target":34962},{"buffer":0,"byteLength":544,"byteOffset":408,"byteStride":16,"target":34962},{"buffer":0,"byteLength":408,"byteOffset":952,"byteStride":12,"target":34962},{"buffer":0,"byteLength":272,"byteOffset":1360,"byteStride":8,"target":34962},{"buffer":0,"byteLength":272,"byteOffset":1632,"byteStride":8,"target":34962},{"buffer":0,"byteLength":192,"byteOffset":1904,"target":34963},{"buffer":0,"byteLength":67584,"byteOffset":2096,"byteStride":12,"target":34962},{"buffer":0,"byteLength":90112,"byteOffset":69680,"byteStride":16,"target":34962},{"buffer":0,"byteLength":67584,"byteOffset":159792,"byteStride":12,"target":34962},{"buffer":0,"byteLength":45056,"byteOffset":227376,"byteStride":8,"target":34962},{"buffer":0,"byteLength":45056,"byteOffset":272432,"byteStride":8,"target":34962},{"buffer":0,"byteLength":33264,"byteOffset":317488,"target":34963}],"buffers":[{"byteLength":350752,"uri":"SM_Stairs_Spiral0.bin"}],"extensionsUsed":["GODOT_single_root"],"images":[{"uri":"textures%2FSM_Stairs_Spiral_SM_FirePlace_MI_Tavern_Plaster_1_1_albedo.png"},{"uri":"textures%2FSM_Stairs_Spiral_SM_FirePlace_MI_Tavern_Plaster_1_1_normal.png"},{"uri":"textures%2FSM_Stairs_Spiral_MI_TrimSheet_Wood_01_Dark_0_albedo.png"},{"uri":"textures%2FSM_Stairs_Spiral_MI_TrimSheet_Wood_01_Dark_0_normal.png"}],"materials":[{"extensions":{},"name":"SM_Stairs_Spiral_SM_FirePlace_MI_Tavern_Plaster_1_1","normalTexture":{"index":1,"scale":1},"pbrMetallicRoughness":{"baseColorFactor":[0.99999988079071,0.99999988079071,0.99999988079071,1],"baseColorTexture":{"index":0},"metallicFactor":0,"roughnessFactor":0.5}},{"doubleSided":true,"extensions":{},"name":"SM_Stairs_Spiral_MI_TrimSheet_Wood_01_Dark_0","normalTexture":{"index":3,"scale":1},"pbrMetallicRoughness":{"baseColorFactor":[0.99999988079071,0.99999988079071,0.99999988079071,1],"baseColorTexture":{"index":2},"metallicFactor":0,"roughnessFactor":0.5}}],"meshes":[{"extras":{"targetNames":[]},"primitives":[{"attributes":{"NORMAL":2,"POSITION":0,"TANGENT":1,"TEXCOORD_0":3,"TEXCOORD_1":4},"indices":5,"material":0,"mode":4},{"attributes":{"NORMAL":8,"POSITION":6,"TANGENT":7,"TEXCOORD_0":9,"TEXCOORD_1":10},"indices":11,"material":1,"mode":4}]}],"nodes":[{"children":[1],"name":"SM_Stairs_Spiral"},{"mesh":0,"name":"Mesh"}],"samplers":[{"magFilter":9729,"minFilter":9987,"wrapS":10497,"wrapT":10497}],"scene":0,"scenes":[{"nodes":[0]}],"textures":[{"sampler":0,"source":0},{"sampler":0,"source":1},{"sampler":0,"source":2},{"sampler":0,"source":3}]}