{"accessors":[{"bufferView":0,"byteOffset":0,"componentType":5126,"count":3233,"max":[0.948019623756409,2.30120038986206,0.772450625896454],"min":[-1.0038069486618,-0.0039759571664,0.00164486758876592],"normalized":false,"type":"VEC3"},{"bufferView":1,"byteOffset":0,"componentType":5126,"count":3233,"max":[1,1,1,1],"min":[-1,-1,-1,-1],"normalized":false,"type":"VEC4"},{"bufferView":2,"byteOffset":0,"componentType":5126,"count":3233,"max":[1,1,1],"min":[-1,-1,-1],"normalized":false,"type":"VEC3"},{"bufferView":3,"byteOffset":0,"componentType":5126,"count":3233,"max":[0.99755859375,0.99755859375],"min":[-1.9970703125,0.0887451171875],"normalized":false,"type":"VEC2"},{"bufferView":4,"byteOffset":0,"componentType":5126,"count":3233,"max":[0.99462890625,0.99462890625],"min":[0.00537109375,0.0537109375],"normalized":false,"type":"VEC2"},{"bufferView":5,"byteOffset":0,"componentType":5123,"count":5832,"max":[1561],"min":[0],"normalized":false,"type":"SCALAR"}],"asset":{"generator":"Godot Engine v4.3.stable.official@77dcf97d82cbfe4e4615475fa52ca03da645dbd8","version":"2.0"},"bufferViews":[{"buffer":0,"byteLength":38796,"byteOffset":0,"byteStride":12,"target":34962},{"buffer":0,"byteLength":51728,"byteOffset":38796,"byteStride":16,"target":34962},{"buffer":0,"byteLength":38796,"byteOffset":90524,"byteStride":12,"target":34962},{"buffer":0,"byteLength":25864,"byteOffset":129320,"byteStride":8,"target":34962},{"buffer":0,"byteLength":25864,"byteOffset":155184,"byteStride":8,"target":34962},{"buffer":0,"byteLength":11664,"byteOffset":181048,"target":34963}],"buffers":[{"byteLength":192712,"uri":"SM_Shelf0.bin"}],"extensionsUsed":["GODOT_single_root"],"images":[{"uri":"textures%2FSM_Shelf_MI_T_Shelf_0_albedo.png"},{"uri":"textures%2FSM_Shelf_MI_T_Shelf_0_normal.png"}],"materials":[{"extensions":{},"name":"SM_Shelf_MI_T_Shelf_0","normalTexture":{"index":1,"scale":1},"pbrMetallicRoughness":{"baseColorFactor":[0.99999988079071,0.99999988079071,0.99999988079071,1],"baseColorTexture":{"index":0},"metallicFactor":0,"roughnessFactor":0.5}}],"meshes":[{"extras":{"targetNames":[]},"primitives":[{"attributes":{"NORMAL":2,"POSITION":0,"TANGENT":1,"TEXCOORD_0":3,"TEXCOORD_1":4},"indices":5,"material":0,"mode":4}]}],"nodes":[{"children":[1],"name":"SM_Shelf"},{"mesh":0,"name":"Mesh"}],"samplers":[{"magFilter":9729,"minFilter":9987,"wrapS":10497,"wrapT":10497}],"scene":0,"scenes":[{"nodes":[0]}],"textures":[{"sampler":0,"source":0},{"sampler":0,"source":1}]}