{"accessors":[{"bufferView":0,"byteOffset":0,"componentType":5126,"count":6777,"max":[0.0401533544063568,3.03127789497375,2.01877856254578],"min":[-2.04453277587891,-0.19999980926514,-0.02618163079023],"normalized":false,"type":"VEC3"},{"bufferView":1,"byteOffset":0,"componentType":5126,"count":6777,"max":[1,0.707149922847748,1,1],"min":[-0.98422783613205,-1,-0.98547810316086,-1],"normalized":false,"type":"VEC4"},{"bufferView":2,"byteOffset":0,"componentType":5126,"count":6777,"max":[1,1,1],"min":[-0.98207354545593,-0.70712834596634,-1],"normalized":false,"type":"VEC3"},{"bufferView":3,"byteOffset":0,"componentType":5126,"count":6777,"max":[0.85498046875,2.44140625],"min":[0.00959014892578125,-1.380859375],"normalized":false,"type":"VEC2"},{"bufferView":4,"byteOffset":0,"componentType":5126,"count":6777,"max":[0.99462890625,0.99462890625],"min":[0.00489044189453125,0.00489425659179688],"normalized":false,"type":"VEC2"},{"bufferView":5,"byteOffset":0,"componentType":5123,"count":12582,"max":[6776],"min":[0],"normalized":false,"type":"SCALAR"}],"asset":{"generator":"Godot Engine v4.3.stable.official@77dcf97d82cbfe4e4615475fa52ca03da645dbd8","version":"2.0"},"bufferViews":[{"buffer":0,"byteLength":81324,"byteOffset":0,"byteStride":12,"target":34962},{"buffer":0,"byteLength":108432,"byteOffset":81324,"byteStride":16,"target":34962},{"buffer":0,"byteLength":81324,"byteOffset":189756,"byteStride":12,"target":34962},{"buffer":0,"byteLength":54216,"byteOffset":271080,"byteStride":8,"target":34962},{"buffer":0,"byteLength":54216,"byteOffset":325296,"byteStride":8,"target":34962},{"buffer":0,"byteLength":25164,"byteOffset":379512,"target":34963}],"buffers":[{"byteLength":404676,"uri":"SM_Stairs_010.bin"}],"extensionsUsed":["GODOT_single_root"],"images":[{"uri":"textures%2FSM_Stairs_01_MI_TrimSheet_Wood_01_Dark_0_albedo.png"},{"uri":"textures%2FSM_Stairs_01_MI_TrimSheet_Wood_01_Dark_0_normal.png"}],"materials":[{"doubleSided":true,"extensions":{},"name":"SM_Stairs_01_MI_TrimSheet_Wood_01_Dark_0","normalTexture":{"index":1,"scale":1},"pbrMetallicRoughness":{"baseColorFactor":[0.99999988079071,0.99999988079071,0.99999988079071,1],"baseColorTexture":{"index":0},"metallicFactor":0,"roughnessFactor":0.5}}],"meshes":[{"extras":{"targetNames":[]},"primitives":[{"attributes":{"NORMAL":2,"POSITION":0,"TANGENT":1,"TEXCOORD_0":3,"TEXCOORD_1":4},"indices":5,"material":0,"mode":4}]}],"nodes":[{"children":[1],"name":"SM_Stairs_01"},{"mesh":0,"name":"Mesh"}],"samplers":[{"magFilter":9729,"minFilter":9987,"wrapS":10497,"wrapT":10497}],"scene":0,"scenes":[{"nodes":[0]}],"textures":[{"sampler":0,"source":0},{"sampler":0,"source":1}]}