{"accessors":[{"bufferView":0,"byteOffset":0,"componentType":5126,"count":3317,"max":[1.07550501823425,0.822045743465424,0.582868933677673],"min":[-1.07550501823425,-0.00412709545344,-0.58286917209625],"normalized":false,"type":"VEC3"},{"bufferView":1,"byteOffset":0,"componentType":5126,"count":3317,"max":[1,1,1,1],"min":[-1,-1,-1,-1],"normalized":false,"type":"VEC4"},{"bufferView":2,"byteOffset":0,"componentType":5126,"count":3317,"max":[1,1,0.999960720539093],"min":[-1,-1,-0.99997717142105],"normalized":false,"type":"VEC3"},{"bufferView":3,"byteOffset":0,"componentType":5126,"count":3317,"max":[0.99560546875,0.99658203125],"min":[-0.99658203125,0.0994873046875],"normalized":false,"type":"VEC2"},{"bufferView":4,"byteOffset":0,"componentType":5126,"count":3317,"max":[0.998046875,0.998046875],"min":[0.00155925750732422,0.0110321044921875],"normalized":false,"type":"VEC2"},{"bufferView":5,"byteOffset":0,"componentType":5123,"count":5178,"max":[1687],"min":[0],"normalized":false,"type":"SCALAR"}],"asset":{"generator":"Godot Engine v4.3.stable.official@77dcf97d82cbfe4e4615475fa52ca03da645dbd8","version":"2.0"},"bufferViews":[{"buffer":0,"byteLength":39804,"byteOffset":0,"byteStride":12,"target":34962},{"buffer":0,"byteLength":53072,"byteOffset":39804,"byteStride":16,"target":34962},{"buffer":0,"byteLength":39804,"byteOffset":92876,"byteStride":12,"target":34962},{"buffer":0,"byteLength":26536,"byteOffset":132680,"byteStride":8,"target":34962},{"buffer":0,"byteLength":26536,"byteOffset":159216,"byteStride":8,"target":34962},{"buffer":0,"byteLength":10356,"byteOffset":185752,"target":34963}],"buffers":[{"byteLength":196108,"uri":"SM_Table_010.bin"}],"extensionsUsed":["GODOT_single_root"],"images":[{"uri":"textures%2FSM_Table_01_MI_TableStool_0_albedo.png"},{"uri":"textures%2FSM_Table_01_MI_TableStool_0_orm.png"},{"uri":"textures%2FSM_Table_01_MI_TableStool_0_normal.png"}],"materials":[{"extensions":{},"name":"SM_Table_01_MI_TableStool_0","normalTexture":{"index":2,"scale":1},"pbrMetallicRoughness":{"baseColorFactor":[0.99999988079071,0.99999988079071,0.99999988079071,1],"baseColorTexture":{"index":0},"metallicFactor":1,"metallicRoughnessTexture":{"index":1},"roughnessFactor":0.5}}],"meshes":[{"extras":{"targetNames":[]},"primitives":[{"attributes":{"NORMAL":2,"POSITION":0,"TANGENT":1,"TEXCOORD_0":3,"TEXCOORD_1":4},"indices":5,"material":0,"mode":4}]}],"nodes":[{"children":[1],"name":"SM_Table_01"},{"mesh":0,"name":"Mesh"}],"samplers":[{"magFilter":9729,"minFilter":9987,"wrapS":10497,"wrapT":10497}],"scene":0,"scenes":[{"nodes":[0]}],"textures":[{"sampler":0,"source":0},{"sampler":0,"source":1},{"sampler":0,"source":2}]}