{"accessors":[{"bufferView":0,"byteOffset":0,"componentType":5126,"count":4074,"max":[0,2.87675142288208,0.277534574270248],"min":[-1,-0.00000000508185,-0.08000135421753],"normalized":false,"type":"VEC3"},{"bufferView":1,"byteOffset":0,"componentType":5126,"count":4074,"max":[1,1,1,1],"min":[-1,-1,-1,-1],"normalized":false,"type":"VEC4"},{"bufferView":2,"byteOffset":0,"componentType":5126,"count":4074,"max":[1,1,1],"min":[-1,-1,-1],"normalized":false,"type":"VEC3"},{"bufferView":3,"byteOffset":0,"componentType":5126,"count":4074,"max":[0.99560546875,0.9970703125],"min":[0.00263214111328125,0.00263404846191406],"normalized":false,"type":"VEC2"},{"bufferView":4,"byteOffset":0,"componentType":5126,"count":4074,"max":[0.99609375,0.99609375],"min":[0.00356674194335938,0.00738143920898438],"normalized":false,"type":"VEC2"},{"bufferView":5,"byteOffset":0,"componentType":5126,"count":4074,"max":[0.9912109375,0.99169921875],"min":[0.00806427001953125,0.00806427001953125],"normalized":false,"type":"VEC2"},{"bufferView":6,"byteOffset":0,"componentType":5126,"count":4074,"max":[0,0],"min":[0,0],"normalized":false,"type":"VEC2"},{"bufferView":7,"byteOffset":0,"componentType":5123,"count":7326,"max":[3610],"min":[0],"normalized":false,"type":"SCALAR"}],"asset":{"generator":"Godot Engine v4.3.stable.official@77dcf97d82cbfe4e4615475fa52ca03da645dbd8","version":"2.0"},"bufferViews":[{"buffer":0,"byteLength":48888,"byteOffset":0,"byteStride":12,"target":34962},{"buffer":0,"byteLength":65184,"byteOffset":48888,"byteStride":16,"target":34962},{"buffer":0,"byteLength":48888,"byteOffset":114072,"byteStride":12,"target":34962},{"buffer":0,"byteLength":32592,"byteOffset":162960,"byteStride":8,"target":34962},{"buffer":0,"byteLength":32592,"byteOffset":195552,"byteStride":8,"target":34962},{"buffer":0,"byteLength":32592,"byteOffset":228144,"byteStride":8,"target":34962},{"buffer":0,"byteLength":32592,"byteOffset":260736,"byteStride":8,"target":34962},{"buffer":0,"byteLength":14652,"byteOffset":293328,"target":34963}],"buffers":[{"byteLength":307980,"uri":"SM_Tavern_Door_010.bin"}],"extensionsUsed":["GODOT_single_root"],"images":[{"uri":"textures%2FSM_Tavern_Door_01_MI_Taver_Door_0_albedo.png"},{"uri":"textures%2FSM_Tavern_Door_01_MI_Taver_Door_0_orm.png"},{"uri":"textures%2FSM_Tavern_Door_01_MI_Taver_Door_0_normal.png"}],"materials":[{"extensions":{},"name":"SM_Tavern_Door_01_MI_Taver_Door_0","normalTexture":{"index":2,"scale":1},"pbrMetallicRoughness":{"baseColorFactor":[0.99999988079071,0.99999988079071,0.99999988079071,1],"baseColorTexture":{"index":0},"metallicFactor":1,"metallicRoughnessTexture":{"index":1},"roughnessFactor":0.5}}],"meshes":[{"extras":{"targetNames":[]},"primitives":[{"attributes":{"NORMAL":2,"POSITION":0,"TANGENT":1,"TEXCOORD_0":3,"TEXCOORD_1":4,"TEXCOORD_2":5,"TEXCOORD_3":6},"indices":7,"material":0,"mode":4}]}],"nodes":[{"children":[1],"name":"SM_Tavern_Door_01"},{"mesh":0,"name":"Mesh"}],"samplers":[{"magFilter":9729,"minFilter":9987,"wrapS":10497,"wrapT":10497}],"scene":0,"scenes":[{"nodes":[0]}],"textures":[{"sampler":0,"source":0},{"sampler":0,"source":1},{"sampler":0,"source":2}]}