{"accessors":[{"bufferView":0,"byteOffset":0,"componentType":5126,"count":48,"max":[0.600001096725464,3.99999952316284,0.600000083446503],"min":[-2.40000033378601,-0.00000057180779,-0.40000030398369],"normalized":false,"type":"VEC3"},{"bufferView":1,"byteOffset":0,"componentType":5126,"count":48,"max":[0.999721586704254,0.315275460481644,0.999690473079681,-1],"min":[-0.99972236156464,-0.315220028162,-0.99968975782394,-1],"normalized":false,"type":"VEC4"},{"bufferView":2,"byteOffset":0,"componentType":5126,"count":48,"max":[0.894182324409485,0.44710710644722,0.999597907066345],"min":[-0.89417904615402,-0.44709831476212,-0.99959802627563],"normalized":false,"type":"VEC3"},{"bufferView":3,"byteOffset":0,"componentType":5126,"count":48,"max":[0.7080078125,1],"min":[0.5771484375,0],"normalized":false,"type":"VEC2"},{"bufferView":4,"byteOffset":0,"componentType":5126,"count":48,"max":[0.857421875,0.93896484375],"min":[0.0113983154296875,0.06549072265625],"normalized":false,"type":"VEC2"},{"bufferView":5,"byteOffset":0,"componentType":5123,"count":72,"max":[47],"min":[0],"normalized":false,"type":"SCALAR"}],"asset":{"generator":"Godot Engine v4.3.stable.official@77dcf97d82cbfe4e4615475fa52ca03da645dbd8","version":"2.0"},"bufferViews":[{"buffer":0,"byteLength":576,"byteOffset":0,"byteStride":12,"target":34962},{"buffer":0,"byteLength":768,"byteOffset":576,"byteStride":16,"target":34962},{"buffer":0,"byteLength":576,"byteOffset":1344,"byteStride":12,"target":34962},{"buffer":0,"byteLength":384,"byteOffset":1920,"byteStride":8,"target":34962},{"buffer":0,"byteLength":384,"byteOffset":2304,"byteStride":8,"target":34962},{"buffer":0,"byteLength":144,"byteOffset":2688,"target":34963}],"buffers":[{"byteLength":2832,"uri":"SM_VerticalColumn_Diagonal_010.bin"}],"extensionsUsed":["GODOT_single_root"],"images":[{"uri":"textures%2FSM_Roof_Column_01_MI_TrimSheet_Wood_01_Dark_0_albedo.png"},{"uri":"textures%2FSM_Roof_Column_01_MI_TrimSheet_Wood_01_Dark_0_normal.png"}],"materials":[{"doubleSided":true,"extensions":{},"name":"SM_Roof_Column_01_MI_TrimSheet_Wood_01_Dark_0","normalTexture":{"index":1,"scale":1},"pbrMetallicRoughness":{"baseColorFactor":[0.99999988079071,0.99999988079071,0.99999988079071,1],"baseColorTexture":{"index":0},"metallicFactor":0,"roughnessFactor":0.5}}],"meshes":[{"extras":{"targetNames":[]},"primitives":[{"attributes":{"NORMAL":2,"POSITION":0,"TANGENT":1,"TEXCOORD_0":3,"TEXCOORD_1":4},"indices":5,"material":0,"mode":4}]}],"nodes":[{"children":[1],"name":"SM_Roof_Column_01"},{"mesh":0,"name":"Mesh"}],"samplers":[{"magFilter":9729,"minFilter":9987,"wrapS":10497,"wrapT":10497}],"scene":0,"scenes":[{"nodes":[0]}],"textures":[{"sampler":0,"source":0},{"sampler":0,"source":1}]}