{"accessors":[{"bufferView":0,"byteOffset":0,"componentType":5126,"count":72,"max":[0.219999849796295,4,0.264000028371811],"min":[-0.42000049352646,0.000000152396339103689,-0.26400169730186],"normalized":false,"type":"VEC3"},{"bufferView":1,"byteOffset":0,"componentType":5126,"count":72,"max":[1,0.0000279545783996582,1,1],"min":[-0.97708863019943,-0.00012430548668,-0.98349320888519,-1],"normalized":false,"type":"VEC4"},{"bufferView":2,"byteOffset":0,"componentType":5126,"count":72,"max":[0.983493268489838,1,0.977119326591492],"min":[-0.98349326848984,-1,-0.97708868980408],"normalized":false,"type":"VEC3"},{"bufferView":3,"byteOffset":0,"componentType":5126,"count":72,"max":[0.42724609375,0.99755859375],"min":[0.212146431207657,-0.00193313509226],"normalized":false,"type":"VEC2"},{"bufferView":4,"byteOffset":0,"componentType":5126,"count":72,"max":[0.70263671875,1],"min":[-0.00001072138548,-0.00001525878906],"normalized":false,"type":"VEC2"},{"bufferView":5,"byteOffset":0,"componentType":5126,"count":72,"max":[0.97998046875,0.99169921875],"min":[0.00806427001953125,0.00806427001953125],"normalized":false,"type":"VEC2"},{"bufferView":6,"byteOffset":0,"componentType":5126,"count":72,"max":[0,0],"min":[0,0],"normalized":false,"type":"VEC2"},{"bufferView":7,"byteOffset":0,"componentType":5123,"count":132,"max":[71],"min":[0],"normalized":false,"type":"SCALAR"}],"asset":{"generator":"Godot Engine v4.3.stable.official@77dcf97d82cbfe4e4615475fa52ca03da645dbd8","version":"2.0"},"bufferViews":[{"buffer":0,"byteLength":864,"byteOffset":0,"byteStride":12,"target":34962},{"buffer":0,"byteLength":1152,"byteOffset":864,"byteStride":16,"target":34962},{"buffer":0,"byteLength":864,"byteOffset":2016,"byteStride":12,"target":34962},{"buffer":0,"byteLength":576,"byteOffset":2880,"byteStride":8,"target":34962},{"buffer":0,"byteLength":576,"byteOffset":3456,"byteStride":8,"target":34962},{"buffer":0,"byteLength":576,"byteOffset":4032,"byteStride":8,"target":34962},{"buffer":0,"byteLength":576,"byteOffset":4608,"byteStride":8,"target":34962},{"buffer":0,"byteLength":264,"byteOffset":5184,"target":34963}],"buffers":[{"byteLength":5448,"uri":"SM_VerticalColumn_010.bin"}],"extensionsUsed":["GODOT_single_root"],"images":[{"uri":"textures%2FSM_VerticalColumn_01_MI_TrimSheet_Wood_01_Dark_0_albedo.png"},{"uri":"textures%2FSM_VerticalColumn_01_MI_TrimSheet_Wood_01_Dark_0_normal.png"}],"materials":[{"doubleSided":true,"extensions":{},"name":"SM_VerticalColumn_01_MI_TrimSheet_Wood_01_Dark_0","normalTexture":{"index":1,"scale":1},"pbrMetallicRoughness":{"baseColorFactor":[0.99999988079071,0.99999988079071,0.99999988079071,1],"baseColorTexture":{"index":0},"metallicFactor":0,"roughnessFactor":0.5}}],"meshes":[{"extras":{"targetNames":[]},"primitives":[{"attributes":{"NORMAL":2,"POSITION":0,"TANGENT":1,"TEXCOORD_0":3,"TEXCOORD_1":4,"TEXCOORD_2":5,"TEXCOORD_3":6},"indices":7,"material":0,"mode":4}]}],"nodes":[{"children":[1],"name":"SM_VerticalColumn_01"},{"mesh":0,"name":"Mesh"}],"samplers":[{"magFilter":9729,"minFilter":9987,"wrapS":10497,"wrapT":10497}],"scene":0,"scenes":[{"nodes":[0]}],"textures":[{"sampler":0,"source":0},{"sampler":0,"source":1}]}