{"accessors":[{"bufferView":0,"byteOffset":0,"componentType":5126,"count":834,"max":[0.123999811708927,4,0.240000054240227],"min":[-0.32400047779083,0.00000020322764271441,-0.24000100791454],"normalized":false,"type":"VEC3"},{"bufferView":1,"byteOffset":0,"componentType":5126,"count":834,"max":[1,0.951771378517151,0.999845266342163,1],"min":[-1,-0.95176392793655,-0.99984508752823,-1],"normalized":false,"type":"VEC4"},{"bufferView":2,"byteOffset":0,"componentType":5126,"count":834,"max":[0.999919354915619,0.999969124794006,0.999504387378693],"min":[-0.9997216463089,-0.99996936321259,-0.99950391054153],"normalized":false,"type":"VEC3"},{"bufferView":3,"byteOffset":0,"componentType":5126,"count":834,"max":[1.4970703125,0.50927734375],"min":[-1.1611328125,0.0000438094139099121],"normalized":false,"type":"VEC2"},{"bufferView":4,"byteOffset":0,"componentType":5126,"count":834,"max":[0.98388671875,0.99462890625],"min":[0.00494766235351563,0.004791259765625],"normalized":false,"type":"VEC2"},{"bufferView":5,"byteOffset":0,"componentType":5123,"count":1860,"max":[610],"min":[0],"normalized":false,"type":"SCALAR"}],"asset":{"generator":"Godot Engine v4.3.stable.official@77dcf97d82cbfe4e4615475fa52ca03da645dbd8","version":"2.0"},"bufferViews":[{"buffer":0,"byteLength":10008,"byteOffset":0,"byteStride":12,"target":34962},{"buffer":0,"byteLength":13344,"byteOffset":10008,"byteStride":16,"target":34962},{"buffer":0,"byteLength":10008,"byteOffset":23352,"byteStride":12,"target":34962},{"buffer":0,"byteLength":6672,"byteOffset":33360,"byteStride":8,"target":34962},{"buffer":0,"byteLength":6672,"byteOffset":40032,"byteStride":8,"target":34962},{"buffer":0,"byteLength":3720,"byteOffset":46704,"target":34963}],"buffers":[{"byteLength":50424,"uri":"SM_VerticalColumn_020.bin"}],"extensionsUsed":["GODOT_single_root"],"images":[{"uri":"textures%2FSM_VerticalColumn_02_MI_Tavern_TrimSheet_01_0_albedo.png"},{"uri":"textures%2FSM_VerticalColumn_02_MI_Tavern_TrimSheet_01_0_normal.png"}],"materials":[{"doubleSided":true,"extensions":{},"name":"SM_VerticalColumn_02_MI_Tavern_TrimSheet_01_0","normalTexture":{"index":1,"scale":1},"pbrMetallicRoughness":{"baseColorFactor":[0.99999988079071,0.99999988079071,0.99999988079071,1],"baseColorTexture":{"index":0},"metallicFactor":0,"roughnessFactor":0.5}}],"meshes":[{"extras":{"targetNames":[]},"primitives":[{"attributes":{"NORMAL":2,"POSITION":0,"TANGENT":1,"TEXCOORD_0":3,"TEXCOORD_1":4},"indices":5,"material":0,"mode":4}]}],"nodes":[{"children":[1],"name":"SM_VerticalColumn_02"},{"mesh":0,"name":"Mesh"}],"samplers":[{"magFilter":9729,"minFilter":9987,"wrapS":10497,"wrapT":10497}],"scene":0,"scenes":[{"nodes":[0]}],"textures":[{"sampler":0,"source":0},{"sampler":0,"source":1}]}