{"accessors":[{"bufferView":0,"byteOffset":0,"componentType":5126,"count":14,"max":[0.514678478240967,1.13783442974091,0.0503998696804047],"min":[-0.48272475600243,0.0508832409977913,0.0503996945917606],"normalized":false,"type":"VEC3"},{"bufferView":1,"byteOffset":0,"componentType":5126,"count":14,"max":[0.0472728945314884,-0.99888199567795,-0.00002978009979,1],"min":[0.0472728945314884,-0.99888199567795,-0.00002978009979,1],"normalized":false,"type":"VEC4"},{"bufferView":2,"byteOffset":0,"componentType":5126,"count":14,"max":[0.00000070428905019071,-0.00002978009979,1],"min":[0.00000070428905019071,-0.00002978009979,1],"normalized":false,"type":"VEC3"},{"bufferView":3,"byteOffset":0,"componentType":5126,"count":14,"max":[0.653803288936615,0.882810711860657],"min":[0.380605787038803,0.590814054012299],"normalized":false,"type":"VEC2"},{"bufferView":4,"byteOffset":0,"componentType":5126,"count":14,"max":[0.454093217849731,0.997070252895355],"min":[0.00247196154668927,0.573723971843719],"normalized":false,"type":"VEC2"},{"bufferView":5,"byteOffset":0,"componentType":5123,"count":36,"max":[13],"min":[0],"normalized":false,"type":"SCALAR"},{"bufferView":6,"byteOffset":0,"componentType":5126,"count":2118,"max":[0.596558034420013,1.19260811805725,0.188526973128319],"min":[-0.58029109239578,-0.00485402019694,-0.00000010224929],"normalized":false,"type":"VEC3"},{"bufferView":7,"byteOffset":0,"componentType":5126,"count":2118,"max":[0.999505341053009,1,0.999938249588013,1],"min":[-0.99987608194351,-1,-0.99993753433228,-1],"normalized":false,"type":"VEC4"},{"bufferView":8,"byteOffset":0,"componentType":5126,"count":2118,"max":[0.999876320362091,0.998761177062988,1],"min":[-0.99987632036209,-0.99989140033722,-1],"normalized":false,"type":"VEC3"},{"bufferView":9,"byteOffset":0,"componentType":5126,"count":2118,"max":[0.99267578125,0.998046875],"min":[0.293212890625,0.07086181640625],"normalized":false,"type":"VEC2"},{"bufferView":10,"byteOffset":0,"componentType":5126,"count":2118,"max":[0.99462890625,0.9970703125],"min":[0.0024871826171875,0.0024871826171875],"normalized":false,"type":"VEC2"},{"bufferView":11,"byteOffset":0,"componentType":5123,"count":2697,"max":[1293],"min":[0],"normalized":false,"type":"SCALAR"}],"asset":{"generator":"Godot Engine v4.3.stable.official@77dcf97d82cbfe4e4615475fa52ca03da645dbd8","version":"2.0"},"bufferViews":[{"buffer":0,"byteLength":168,"byteOffset":0,"byteStride":12,"target":34962},{"buffer":0,"byteLength":224,"byteOffset":168,"byteStride":16,"target":34962},{"buffer":0,"byteLength":168,"byteOffset":392,"byteStride":12,"target":34962},{"buffer":0,"byteLength":112,"byteOffset":560,"byteStride":8,"target":34962},{"buffer":0,"byteLength":112,"byteOffset":672,"byteStride":8,"target":34962},{"buffer":0,"byteLength":72,"byteOffset":784,"target":34963},{"buffer":0,"byteLength":25416,"byteOffset":856,"byteStride":12,"target":34962},{"buffer":0,"byteLength":33888,"byteOffset":26272,"byteStride":16,"target":34962},{"buffer":0,"byteLength":25416,"byteOffset":60160,"byteStride":12,"target":34962},{"buffer":0,"byteLength":16944,"byteOffset":85576,"byteStride":8,"target":34962},{"buffer":0,"byteLength":16944,"byteOffset":102520,"byteStride":8,"target":34962},{"buffer":0,"byteLength":5394,"byteOffset":119464,"target":34963}],"buffers":[{"byteLength":124860,"uri":"SM_Window_010.bin"}],"extensionsUsed":["GODOT_single_root"],"images":[{"uri":"textures%2FSM_Window_01_MI_Window_Emissive_0_albedo.png"},{"uri":"textures%2FSM_Window_01_MI_Window_Emissive_0_normal.png"},{"uri":"textures%2FSM_Window_01_MI_Window_02_1_albedo.png"},{"uri":"textures%2FSM_Window_01_MI_Window_02_1_normal.png"}],"materials":[{"extensions":{},"name":"SM_Window_01_MI_Window_Emissive_0","normalTexture":{"index":1,"scale":1},"pbrMetallicRoughness":{"baseColorFactor":[0.99999988079071,0.99999988079071,0.99999988079071,1],"baseColorTexture":{"index":0},"metallicFactor":0,"roughnessFactor":0.5}},{"doubleSided":true,"extensions":{},"name":"SM_Window_01_MI_Window_02_1","normalTexture":{"index":3,"scale":1},"pbrMetallicRoughness":{"baseColorFactor":[0.99999988079071,0.99999988079071,0.99999988079071,1],"baseColorTexture":{"index":2},"metallicFactor":0,"roughnessFactor":0.458824008703232}}],"meshes":[{"extras":{"targetNames":[]},"primitives":[{"attributes":{"NORMAL":2,"POSITION":0,"TANGENT":1,"TEXCOORD_0":3,"TEXCOORD_1":4},"indices":5,"material":0,"mode":4},{"attributes":{"NORMAL":8,"POSITION":6,"TANGENT":7,"TEXCOORD_0":9,"TEXCOORD_1":10},"indices":11,"material":1,"mode":4}]}],"nodes":[{"children":[1],"name":"SM_Window_01"},{"mesh":0,"name":"Mesh"}],"samplers":[{"magFilter":9729,"minFilter":9987,"wrapS":10497,"wrapT":10497}],"scene":0,"scenes":[{"nodes":[0]}],"textures":[{"sampler":0,"source":0},{"sampler":0,"source":1},{"sampler":0,"source":2},{"sampler":0,"source":3}]}