{"accessors":[{"bufferView":0,"byteOffset":0,"componentType":5126,"count":4,"max":[0,4,-0],"min":[-2,-0.00000000000042,-0.00000321470225],"normalized":false,"type":"VEC3"},{"bufferView":1,"byteOffset":0,"componentType":5126,"count":4,"max":[1,0,-0.00001525902189,1],"min":[1,0,-0.00001525902189,1],"normalized":false,"type":"VEC4"},{"bufferView":2,"byteOffset":0,"componentType":5126,"count":4,"max":[-0.00001525925472,-0.00001525925472,1],"min":[-0.00001525925472,-0.00001525925472,1],"normalized":false,"type":"VEC3"},{"bufferView":3,"byteOffset":0,"componentType":5126,"count":4,"max":[0.499267578125,0.99853515625],"min":[0,0],"normalized":false,"type":"VEC2"},{"bufferView":4,"byteOffset":0,"componentType":5126,"count":4,"max":[0.99267578125,0.99267578125],"min":[0.50439453125,0.0166473388671875],"normalized":false,"type":"VEC2"},{"bufferView":5,"byteOffset":0,"componentType":5123,"count":6,"max":[3],"min":[0],"normalized":false,"type":"SCALAR"},{"bufferView":6,"byteOffset":0,"componentType":5126,"count":4,"max":[0.000000238418579101563,4,-0.19999998807907],"min":[-1.99999964237213,-0.00000003258456,-0.20000322163105],"normalized":false,"type":"VEC3"},{"bufferView":7,"byteOffset":0,"componentType":5126,"count":4,"max":[-1,-0.00000000000133,-0.00000008742278,1],"min":[-1,-0.00000000000133,-0.00000008742278,1],"normalized":false,"type":"VEC4"},{"bufferView":8,"byteOffset":0,"componentType":5126,"count":4,"max":[0.0000000874227765734759,-0.00003051804379,-1],"min":[0.0000000874227765734759,-0.00003051804379,-1],"normalized":false,"type":"VEC3"},{"bufferView":9,"byteOffset":0,"componentType":5126,"count":4,"max":[0.74951171875,1.498046875],"min":[-0.24915102124214,-0.49880033731461],"normalized":false,"type":"VEC2"},{"bufferView":10,"byteOffset":0,"componentType":5126,"count":4,"max":[0.4951171875,0.99267578125],"min":[0.00686751212924719,0.0166468229144812],"normalized":false,"type":"VEC2"},{"bufferView":11,"byteOffset":0,"componentType":5123,"count":6,"max":[3],"min":[0],"normalized":false,"type":"SCALAR"}],"asset":{"generator":"Godot Engine v4.3.stable.official@77dcf97d82cbfe4e4615475fa52ca03da645dbd8","version":"2.0"},"bufferViews":[{"buffer":0,"byteLength":48,"byteOffset":0,"byteStride":12,"target":34962},{"buffer":0,"byteLength":64,"byteOffset":48,"byteStride":16,"target":34962},{"buffer":0,"byteLength":48,"byteOffset":112,"byteStride":12,"target":34962},{"buffer":0,"byteLength":32,"byteOffset":160,"byteStride":8,"target":34962},{"buffer":0,"byteLength":32,"byteOffset":192,"byteStride":8,"target":34962},{"buffer":0,"byteLength":12,"byteOffset":224,"target":34963},{"buffer":0,"byteLength":48,"byteOffset":236,"byteStride":12,"target":34962},{"buffer":0,"byteLength":64,"byteOffset":284,"byteStride":16,"target":34962},{"buffer":0,"byteLength":48,"byteOffset":348,"byteStride":12,"target":34962},{"buffer":0,"byteLength":32,"byteOffset":396,"byteStride":8,"target":34962},{"buffer":0,"byteLength":32,"byteOffset":428,"byteStride":8,"target":34962},{"buffer":0,"byteLength":12,"byteOffset":460,"target":34963}],"buffers":[{"byteLength":472,"uri":"SM_Wall_Rectangle0.bin"}],"extensionsUsed":["GODOT_single_root"],"images":[{"uri":"textures%2FSM_Wall_04_MI_TrimSheet_Wood_01_Light_0_albedo.png"},{"uri":"textures%2FSM_Wall_04_MI_TrimSheet_Wood_01_Light_0_normal.png"}],"materials":[{"doubleSided":true,"extensions":{},"name":"SM_Wall_04_MI_TrimSheet_Wood_01_Light_0","normalTexture":{"index":1,"scale":1},"pbrMetallicRoughness":{"baseColorFactor":[0.99999988079071,0.99999988079071,0.99999988079071,1],"baseColorTexture":{"index":0},"metallicFactor":0,"roughnessFactor":0.5}}],"meshes":[{"extras":{"targetNames":[]},"primitives":[{"attributes":{"NORMAL":2,"POSITION":0,"TANGENT":1,"TEXCOORD_0":3,"TEXCOORD_1":4},"indices":5,"material":0,"mode":4},{"attributes":{"NORMAL":8,"POSITION":6,"TANGENT":7,"TEXCOORD_0":9,"TEXCOORD_1":10},"indices":11,"material":0,"mode":4}]}],"nodes":[{"children":[1],"name":"SM_Wall_04"},{"mesh":0,"name":"Mesh"}],"samplers":[{"magFilter":9729,"minFilter":9987,"wrapS":10497,"wrapT":10497}],"scene":0,"scenes":[{"nodes":[0]}],"textures":[{"sampler":0,"source":0},{"sampler":0,"source":1}]}