{"accessors":[{"bufferView":0,"byteOffset":0,"componentType":5126,"count":4,"max":[0.200001865625381,4.00000047683716,4],"min":[0.199999958276749,-0.00000000000003,-0.00000084241753],"normalized":false,"type":"VEC3"},{"bufferView":1,"byteOffset":0,"componentType":5126,"count":4,"max":[0.0000239173550653504,0.0000152590218931437,-1,1],"min":[0.0000239173550653504,0.0000152590218931437,-1,1],"normalized":false,"type":"VEC4"},{"bufferView":2,"byteOffset":0,"componentType":5126,"count":4,"max":[1,0.0000152586571857682,0.0000239175878959941],"min":[1,0.0000152586571857682,0.0000239175878959941],"normalized":false,"type":"VEC3"},{"bufferView":3,"byteOffset":0,"componentType":5126,"count":4,"max":[0.9990234375,0.9990234375],"min":[0.000778210116550326,0.000778210116550326],"normalized":false,"type":"VEC2"},{"bufferView":4,"byteOffset":0,"componentType":5126,"count":4,"max":[0.987792789936066,0.99414050579071],"min":[0.499748229980469,0.505851805210114],"normalized":false,"type":"VEC2"},{"bufferView":5,"byteOffset":0,"componentType":5123,"count":6,"max":[3],"min":[0],"normalized":false,"type":"SCALAR"},{"bufferView":6,"byteOffset":0,"componentType":5126,"count":4,"max":[0.00000185694239007717,4.00000047683716,3.99999976158142],"min":[-0.00000002144313,0.00000000000000000000019440346098,-0.00000065168268],"normalized":false,"type":"VEC3"},{"bufferView":7,"byteOffset":0,"componentType":5126,"count":4,"max":[0.0000239173550653504,0.0000152590218931437,1,1],"min":[0.0000239173550653504,0.0000152590218931437,1,1],"normalized":false,"type":"VEC4"},{"bufferView":8,"byteOffset":0,"componentType":5126,"count":4,"max":[-1,-0.00001525865719,0.0000239175878959941],"min":[-1,-0.00001525865719,0.0000239175878959941],"normalized":false,"type":"VEC3"},{"bufferView":9,"byteOffset":0,"componentType":5126,"count":4,"max":[0.9990234375,0.9990234375],"min":[0.000778210116550326,0.000778210116550326],"normalized":false,"type":"VEC2"},{"bufferView":10,"byteOffset":0,"componentType":5126,"count":4,"max":[0.499748229980469,0.99414050579071],"min":[0.0117036700248718,0.505363523960114],"normalized":false,"type":"VEC2"},{"bufferView":11,"byteOffset":0,"componentType":5123,"count":6,"max":[3],"min":[0],"normalized":false,"type":"SCALAR"}],"asset":{"generator":"Godot Engine v4.3.stable.official@77dcf97d82cbfe4e4615475fa52ca03da645dbd8","version":"2.0"},"bufferViews":[{"buffer":0,"byteLength":48,"byteOffset":0,"byteStride":12,"target":34962},{"buffer":0,"byteLength":64,"byteOffset":48,"byteStride":16,"target":34962},{"buffer":0,"byteLength":48,"byteOffset":112,"byteStride":12,"target":34962},{"buffer":0,"byteLength":32,"byteOffset":160,"byteStride":8,"target":34962},{"buffer":0,"byteLength":32,"byteOffset":192,"byteStride":8,"target":34962},{"buffer":0,"byteLength":12,"byteOffset":224,"target":34963},{"buffer":0,"byteLength":48,"byteOffset":236,"byteStride":12,"target":34962},{"buffer":0,"byteLength":64,"byteOffset":284,"byteStride":16,"target":34962},{"buffer":0,"byteLength":48,"byteOffset":348,"byteStride":12,"target":34962},{"buffer":0,"byteLength":32,"byteOffset":396,"byteStride":8,"target":34962},{"buffer":0,"byteLength":32,"byteOffset":428,"byteStride":8,"target":34962},{"buffer":0,"byteLength":12,"byteOffset":460,"target":34963}],"buffers":[{"byteLength":472,"uri":"SM_Wall_Two_Sided0.bin"}],"extensionsUsed":["GODOT_single_root"],"images":[{"uri":"textures%2FSM_Wall_05_MI_Tavern_TrimSheet_01_0_albedo.png"},{"uri":"textures%2FSM_Wall_05_MI_Tavern_TrimSheet_01_0_normal.png"}],"materials":[{"doubleSided":true,"extensions":{},"name":"SM_Wall_05_MI_Tavern_TrimSheet_01_0","normalTexture":{"index":1,"scale":1},"pbrMetallicRoughness":{"baseColorFactor":[0.99999988079071,0.99999988079071,0.99999988079071,1],"baseColorTexture":{"index":0},"metallicFactor":0,"roughnessFactor":0.5}}],"meshes":[{"extras":{"targetNames":[]},"primitives":[{"attributes":{"NORMAL":2,"POSITION":0,"TANGENT":1,"TEXCOORD_0":3,"TEXCOORD_1":4},"indices":5,"material":0,"mode":4},{"attributes":{"NORMAL":8,"POSITION":6,"TANGENT":7,"TEXCOORD_0":9,"TEXCOORD_1":10},"indices":11,"material":0,"mode":4}]}],"nodes":[{"children":[1],"name":"SM_Wall_05"},{"mesh":0,"name":"Mesh"}],"samplers":[{"magFilter":9729,"minFilter":9987,"wrapS":10497,"wrapT":10497}],"scene":0,"scenes":[{"nodes":[0]}],"textures":[{"sampler":0,"source":0},{"sampler":0,"source":1}]}