{"accessors":[{"bufferView":0,"byteOffset":0,"componentType":5126,"count":15,"max":[0.200000032782555,4.00000047683716,4],"min":[0.199999898672104,-0.00000000000002,-0.00000074705014],"normalized":false,"type":"VEC3"},{"bufferView":1,"byteOffset":0,"componentType":5126,"count":15,"max":[0.0000239173550653504,0.0000152590218931437,-1,1],"min":[0.0000239173550653504,0.0000152590218931437,-1,1],"normalized":false,"type":"VEC4"},{"bufferView":2,"byteOffset":0,"componentType":5126,"count":15,"max":[1,0.0000152586571857682,0.0000239175878959941],"min":[1,0.0000152586571857682,0.0000239175878959941],"normalized":false,"type":"VEC3"},{"bufferView":3,"byteOffset":0,"componentType":5126,"count":15,"max":[1.5,1.5],"min":[-0.50004577636719,-0.50004577636719],"normalized":false,"type":"VEC2"},{"bufferView":4,"byteOffset":0,"componentType":5126,"count":15,"max":[0.98974609375,0.99169921875],"min":[0.501933515071869,0.503892481327057],"normalized":false,"type":"VEC2"},{"bufferView":5,"byteOffset":0,"componentType":5123,"count":45,"max":[14],"min":[0],"normalized":false,"type":"SCALAR"},{"bufferView":6,"byteOffset":0,"componentType":5126,"count":15,"max":[-0.0000000026034,4.00000047683716,3.99999976158142],"min":[-0.00000009141091,-0.00000485777855,-0.00000065168268],"normalized":false,"type":"VEC3"},{"bufferView":7,"byteOffset":0,"componentType":5126,"count":15,"max":[0.0001220703125,0.0000305817193293478,-0.99999994039536,-1],"min":[0.0001220703125,0.0000305817193293478,-0.99999994039536,-1],"normalized":false,"type":"VEC4"},{"bufferView":8,"byteOffset":0,"componentType":5126,"count":15,"max":[-1,-0.00003045436097,-0.00012207032705],"min":[-1,-0.00003045436097,-0.00012207032705],"normalized":false,"type":"VEC3"},{"bufferView":9,"byteOffset":0,"componentType":5126,"count":15,"max":[0.9990234375,0.9990234375],"min":[0.000778210116550326,0.000778210116550326],"normalized":false,"type":"VEC2"},{"bufferView":10,"byteOffset":0,"componentType":5126,"count":15,"max":[0.497795075178146,0.99169909954071],"min":[0.0100556956604123,0.503898680210114],"normalized":false,"type":"VEC2"},{"bufferView":11,"byteOffset":0,"componentType":5123,"count":45,"max":[14],"min":[0],"normalized":false,"type":"SCALAR"},{"bufferView":12,"byteOffset":0,"componentType":5126,"count":2142,"max":[0.304210871458054,2.47686767578125,2.7495391368866],"min":[-0.10421154648066,1.00228810310364,1.43934369087219],"normalized":false,"type":"VEC3"},{"bufferView":13,"byteOffset":0,"componentType":5126,"count":2142,"max":[0.447140842676163,1,1,1],"min":[-0.44711452722549,-1,-1,-1],"normalized":false,"type":"VEC4"},{"bufferView":14,"byteOffset":0,"componentType":5126,"count":2142,"max":[1,1,1],"min":[-1,-1,-1],"normalized":false,"type":"VEC3"},{"bufferView":15,"byteOffset":0,"componentType":5126,"count":2142,"max":[1.5751953125,0.662109375],"min":[-0.90380859375,0.1754150390625],"normalized":false,"type":"VEC2"},{"bufferView":16,"byteOffset":0,"componentType":5126,"count":2142,"max":[0.958984375,0.344970703125],"min":[0,0],"normalized":false,"type":"VEC2"},{"bufferView":17,"byteOffset":0,"componentType":5123,"count":3792,"max":[1750],"min":[0],"normalized":false,"type":"SCALAR"},{"bufferView":18,"byteOffset":0,"componentType":5126,"count":20,"max":[0.103720560669899,2.31946110725403,2.59456396102905],"min":[0.10372006893158,1.13786244392395,1.6033433675766],"normalized":false,"type":"VEC3"},{"bufferView":19,"byteOffset":0,"componentType":5126,"count":20,"max":[1,0,-0.00001525902189,1],"min":[1,0,-0.00001525902189,1],"normalized":false,"type":"VEC4"},{"bufferView":20,"byteOffset":0,"componentType":5126,"count":20,"max":[1,0,-0.00001525902189],"min":[1,0,-0.00001525902189],"normalized":false,"type":"VEC3"},{"bufferView":21,"byteOffset":0,"componentType":5126,"count":20,"max":[0,1],"min":[0,1],"normalized":false,"type":"VEC2"},{"bufferView":22,"byteOffset":0,"componentType":5126,"count":20,"max":[0.8291015625,0.1431884765625],"min":[0.712890625,0.00465011596679688],"normalized":false,"type":"VEC2"},{"bufferView":23,"byteOffset":0,"componentType":5123,"count":54,"max":[19],"min":[0],"normalized":false,"type":"SCALAR"}],"asset":{"generator":"Godot Engine v4.3.stable.official@77dcf97d82cbfe4e4615475fa52ca03da645dbd8","version":"2.0"},"bufferViews":[{"buffer":0,"byteLength":180,"byteOffset":0,"byteStride":12,"target":34962},{"buffer":0,"byteLength":240,"byteOffset":180,"byteStride":16,"target":34962},{"buffer":0,"byteLength":180,"byteOffset":420,"byteStride":12,"target":34962},{"buffer":0,"byteLength":120,"byteOffset":600,"byteStride":8,"target":34962},{"buffer":0,"byteLength":120,"byteOffset":720,"byteStride":8,"target":34962},{"buffer":0,"byteLength":90,"byteOffset":840,"target":34963},{"buffer":0,"byteLength":180,"byteOffset":932,"byteStride":12,"target":34962},{"buffer":0,"byteLength":240,"byteOffset":1112,"byteStride":16,"target":34962},{"buffer":0,"byteLength":180,"byteOffset":1352,"byteStride":12,"target":34962},{"buffer":0,"byteLength":120,"byteOffset":1532,"byteStride":8,"target":34962},{"buffer":0,"byteLength":120,"byteOffset":1652,"byteStride":8,"target":34962},{"buffer":0,"byteLength":90,"byteOffset":1772,"target":34963},{"buffer":0,"byteLength":25704,"byteOffset":1864,"byteStride":12,"target":34962},{"buffer":0,"byteLength":34272,"byteOffset":27568,"byteStride":16,"target":34962},{"buffer":0,"byteLength":25704,"byteOffset":61840,"byteStride":12,"target":34962},{"buffer":0,"byteLength":17136,"byteOffset":87544,"byteStride":8,"target":34962},{"buffer":0,"byteLength":17136,"byteOffset":104680,"byteStride":8,"target":34962},{"buffer":0,"byteLength":7584,"byteOffset":121816,"target":34963},{"buffer":0,"byteLength":240,"byteOffset":129400,"byteStride":12,"target":34962},{"buffer":0,"byteLength":320,"byteOffset":129640,"byteStride":16,"target":34962},{"buffer":0,"byteLength":240,"byteOffset":129960,"byteStride":12,"target":34962},{"buffer":0,"byteLength":160,"byteOffset":130200,"byteStride":8,"target":34962},{"buffer":0,"byteLength":160,"byteOffset":130360,"byteStride":8,"target":34962},{"buffer":0,"byteLength":108,"byteOffset":130520,"target":34963}],"buffers":[{"byteLength":130628,"uri":"SM_Window_Wall_020.bin"}],"extensionsUsed":["GODOT_single_root"],"images":[{"uri":"textures%2FSM_Window_Wall_02_MI_TrimSheet_Wood_02_1_albedo.png"},{"uri":"textures%2FSM_Window_Wall_02_MI_TrimSheet_Wood_02_1_normal.png"},{"uri":"textures%2FSM_Window_Wall_02_MI_Tavern_TrimSheet_01_0_albedo.png"},{"uri":"textures%2FSM_Window_Wall_02_MI_Tavern_TrimSheet_01_0_normal.png"},{"uri":"textures%2FSM_Window_Wall_02_MI_TrimSheet_Wood_04_2_albedo.png"},{"uri":"textures%2FSM_Window_Wall_02_MI_TrimSheet_Wood_04_2_normal.png"}],"materials":[{"doubleSided":true,"extensions":{},"name":"SM_Window_Wall_02_MI_TrimSheet_Wood_02_1","normalTexture":{"index":1,"scale":1},"pbrMetallicRoughness":{"baseColorFactor":[0.99999988079071,0.99999988079071,0.99999988079071,1],"baseColorTexture":{"index":0},"metallicFactor":0,"roughnessFactor":0.5}},{"doubleSided":true,"extensions":{},"name":"SM_Window_Wall_02_MI_Tavern_TrimSheet_01_0","normalTexture":{"index":3,"scale":1},"pbrMetallicRoughness":{"baseColorFactor":[0.99999988079071,0.99999988079071,0.99999988079071,1],"baseColorTexture":{"index":2},"metallicFactor":0,"roughnessFactor":0.5}},{"doubleSided":true,"extensions":{},"name":"SM_Window_Wall_02_MI_TrimSheet_Wood_04_2","normalTexture":{"index":5,"scale":1},"pbrMetallicRoughness":{"baseColorFactor":[0.99999988079071,0.99999988079071,0.99999988079071,1],"baseColorTexture":{"index":4},"metallicFactor":0,"roughnessFactor":0.5}},{"alphaMode":"BLEND","extensions":{},"name":"SM_Window_Wall_02_MI_Glass_3","pbrMetallicRoughness":{"baseColorFactor":[0.99999988079071,0.99999988079071,0.99999988079071,0],"metallicFactor":0,"roughnessFactor":0.5}}],"meshes":[{"extras":{"targetNames":[]},"primitives":[{"attributes":{"NORMAL":2,"POSITION":0,"TANGENT":1,"TEXCOORD_0":3,"TEXCOORD_1":4},"indices":5,"material":0,"mode":4},{"attributes":{"NORMAL":8,"POSITION":6,"TANGENT":7,"TEXCOORD_0":9,"TEXCOORD_1":10},"indices":11,"material":1,"mode":4},{"attributes":{"NORMAL":14,"POSITION":12,"TANGENT":13,"TEXCOORD_0":15,"TEXCOORD_1":16},"indices":17,"material":2,"mode":4},{"attributes":{"NORMAL":20,"POSITION":18,"TANGENT":19,"TEXCOORD_0":21,"TEXCOORD_1":22},"indices":23,"material":3,"mode":4}]}],"nodes":[{"children":[1],"name":"SM_Window_Wall_02"},{"mesh":0,"name":"Mesh"}],"samplers":[{"magFilter":9729,"minFilter":9987,"wrapS":10497,"wrapT":10497}],"scene":0,"scenes":[{"nodes":[0]}],"textures":[{"sampler":0,"source":0},{"sampler":0,"source":1},{"sampler":0,"source":2},{"sampler":0,"source":3},{"sampler":0,"source":4},{"sampler":0,"source":5}]}