{"accessors":[{"bufferView":0,"byteOffset":0,"componentType":5126,"count":285,"max":[0.423970550298691,0.969549834728241,0.0167991816997528],"min":[-0.43009626865387,0.0951094329357147,0.0105938529595733],"normalized":false,"type":"VEC3"},{"bufferView":1,"byteOffset":0,"componentType":5126,"count":285,"max":[-0.99574655294418,0,0.0789562240242958,1],"min":[-0.99996936321259,-0.06323646754026,-0.07856229692698,1],"normalized":false,"type":"VEC4"},{"bufferView":2,"byteOffset":0,"componentType":5126,"count":285,"max":[0.0784882828593254,0.0784882828593254,1],"min":[-0.07849392294884,-0.07852353900671,0.996389091014862],"normalized":false,"type":"VEC3"},{"bufferView":3,"byteOffset":0,"componentType":5126,"count":285,"max":[0.2449951171875,0.399169921875],"min":[0.00169181823730469,0.150146484375],"normalized":false,"type":"VEC2"},{"bufferView":4,"byteOffset":0,"componentType":5126,"count":285,"max":[0.7236328125,0.6279296875],"min":[0.37255859375,0.284423828125],"normalized":false,"type":"VEC2"},{"bufferView":5,"byteOffset":0,"componentType":5123,"count":288,"max":[284],"min":[0],"normalized":false,"type":"SCALAR"},{"bufferView":6,"byteOffset":0,"componentType":5126,"count":1010,"max":[0.51924192905426,1.06127941608429,0.128545522689819],"min":[-0.51930302381516,0.00719790393486619,-0.01134651247412],"normalized":false,"type":"VEC3"},{"bufferView":7,"byteOffset":0,"componentType":5126,"count":1010,"max":[1,0.998454391956329,0.999504387378693,1],"min":[-0.9873988032341,-0.9999692440033,-0.99848389625549,1],"normalized":false,"type":"VEC4"},{"bufferView":8,"byteOffset":0,"componentType":5126,"count":1010,"max":[0.998855769634247,0.998947143554688,1],"min":[-0.99774485826492,-0.99969035387039,-0.10996243357658],"normalized":false,"type":"VEC3"},{"bufferView":9,"byteOffset":0,"componentType":5126,"count":1010,"max":[0.9033203125,0.998046875],"min":[0.2413330078125,0.07574462890625],"normalized":false,"type":"VEC2"},{"bufferView":10,"byteOffset":0,"componentType":5126,"count":1010,"max":[0.99609375,0.99658203125],"min":[0.00339126586914063,0.00339126586914063],"normalized":false,"type":"VEC2"},{"bufferView":11,"byteOffset":0,"componentType":5123,"count":1080,"max":[908],"min":[0],"normalized":false,"type":"SCALAR"}],"asset":{"generator":"Godot Engine v4.3.stable.official@77dcf97d82cbfe4e4615475fa52ca03da645dbd8","version":"2.0"},"bufferViews":[{"buffer":0,"byteLength":3420,"byteOffset":0,"byteStride":12,"target":34962},{"buffer":0,"byteLength":4560,"byteOffset":3420,"byteStride":16,"target":34962},{"buffer":0,"byteLength":3420,"byteOffset":7980,"byteStride":12,"target":34962},{"buffer":0,"byteLength":2280,"byteOffset":11400,"byteStride":8,"target":34962},{"buffer":0,"byteLength":2280,"byteOffset":13680,"byteStride":8,"target":34962},{"buffer":0,"byteLength":576,"byteOffset":15960,"target":34963},{"buffer":0,"byteLength":12120,"byteOffset":16536,"byteStride":12,"target":34962},{"buffer":0,"byteLength":16160,"byteOffset":28656,"byteStride":16,"target":34962},{"buffer":0,"byteLength":12120,"byteOffset":44816,"byteStride":12,"target":34962},{"buffer":0,"byteLength":8080,"byteOffset":56936,"byteStride":8,"target":34962},{"buffer":0,"byteLength":8080,"byteOffset":65016,"byteStride":8,"target":34962},{"buffer":0,"byteLength":2160,"byteOffset":73096,"target":34963}],"buffers":[{"byteLength":75256,"uri":"SM_Window_030.bin"}],"extensionsUsed":["GODOT_single_root"],"images":[{"uri":"textures%2FSM_Window_03_MI_Window_Emissive_1_albedo.png"},{"uri":"textures%2FSM_Window_03_MI_Window_Emissive_1_normal.png"},{"uri":"textures%2FSM_Window_03_MI_Window_01_0_albedo.png"},{"uri":"textures%2FSM_Window_03_MI_Window_01_0_normal.png"}],"materials":[{"extensions":{},"name":"SM_Window_03_MI_Window_Emissive_1","normalTexture":{"index":1,"scale":1},"pbrMetallicRoughness":{"baseColorFactor":[0.99999988079071,0.99999988079071,0.99999988079071,1],"baseColorTexture":{"index":0},"metallicFactor":0,"roughnessFactor":0.5}},{"doubleSided":true,"extensions":{},"name":"SM_Window_03_MI_Window_01_0","normalTexture":{"index":3,"scale":1},"pbrMetallicRoughness":{"baseColorFactor":[0.99999988079071,0.99999988079071,0.99999988079071,1],"baseColorTexture":{"index":2},"metallicFactor":0,"roughnessFactor":0.490195989608765}}],"meshes":[{"extras":{"targetNames":[]},"primitives":[{"attributes":{"NORMAL":2,"POSITION":0,"TANGENT":1,"TEXCOORD_0":3,"TEXCOORD_1":4},"indices":5,"material":0,"mode":4},{"attributes":{"NORMAL":8,"POSITION":6,"TANGENT":7,"TEXCOORD_0":9,"TEXCOORD_1":10},"indices":11,"material":1,"mode":4}]}],"nodes":[{"children":[1],"name":"SM_Window_03"},{"mesh":0,"name":"Mesh"}],"samplers":[{"magFilter":9729,"minFilter":9987,"wrapS":10497,"wrapT":10497}],"scene":0,"scenes":[{"nodes":[0]}],"textures":[{"sampler":0,"source":0},{"sampler":0,"source":1},{"sampler":0,"source":2},{"sampler":0,"source":3}]}