{"accessors":[{"bufferView":0,"byteOffset":0,"componentType":5126,"count":9,"max":[0.00000166893005371094,4,4],"min":[-2.00000071525574,-0.00000044347252,-0],"normalized":false,"type":"VEC3"},{"bufferView":1,"byteOffset":0,"componentType":5126,"count":9,"max":[0.0000767707824707031,-0.00003685057163,-0.99999994039536,1],"min":[0.0000767707824707031,-0.00003685057163,-0.99999994039536,1],"normalized":false,"type":"VEC4"},{"bufferView":2,"byteOffset":0,"componentType":5126,"count":9,"max":[-0.89439469575882,-0.44727867841721,-0.00005227328074],"min":[-0.89439469575882,-0.44727867841721,-0.00005227328074],"normalized":false,"type":"VEC3"},{"bufferView":3,"byteOffset":0,"componentType":5126,"count":9,"max":[1.3388671875,1.4970703125],"min":[-0.44653418660164,-0.4990690946579],"normalized":false,"type":"VEC2"},{"bufferView":4,"byteOffset":0,"componentType":5126,"count":9,"max":[0.69091796875,0.79736328125],"min":[0.447254359722137,0.524409174919128],"normalized":false,"type":"VEC2"},{"bufferView":5,"byteOffset":0,"componentType":5123,"count":27,"max":[8],"min":[0],"normalized":false,"type":"SCALAR"},{"bufferView":6,"byteOffset":0,"componentType":5126,"count":9,"max":[0.20000159740448,4,4],"min":[-1.80000054836273,-0.00000044347252,0.00000000000000119657464546594],"normalized":false,"type":"VEC3"},{"bufferView":7,"byteOffset":0,"componentType":5126,"count":9,"max":[0.447174042463303,-0.894446849823,-0.00006845593452,1],"min":[0.447174042463303,-0.894446849823,-0.00006845593452,1],"normalized":false,"type":"VEC4"},{"bufferView":8,"byteOffset":0,"componentType":5126,"count":9,"max":[0.894446969032288,0.44717413187027,0.000000298023252298663],"min":[0.894446969032288,0.44717413187027,0.000000298023252298663],"normalized":false,"type":"VEC3"},{"bufferView":9,"byteOffset":0,"componentType":5126,"count":9,"max":[1.3974609375,0.99951171875],"min":[-0.83839130401611,-1],"normalized":false,"type":"VEC2"},{"bufferView":10,"byteOffset":0,"componentType":5126,"count":9,"max":[0.447265625,0.79736328125],"min":[0.203113943338394,0.524409174919128],"normalized":false,"type":"VEC2"},{"bufferView":11,"byteOffset":0,"componentType":5123,"count":27,"max":[8],"min":[0],"normalized":false,"type":"SCALAR"},{"bufferView":12,"byteOffset":0,"componentType":5126,"count":3587,"max":[0.805291593074799,3.25247025489807,3.22981071472168],"min":[-2.02461314201355,1.73765695095062,0.746049106121063],"normalized":false,"type":"VEC3"},{"bufferView":13,"byteOffset":0,"componentType":5126,"count":3587,"max":[1,0.999875783920288,1,1],"min":[-1,-0.8972972035408,-1,-1],"normalized":false,"type":"VEC4"},{"bufferView":14,"byteOffset":0,"componentType":5126,"count":3587,"max":[1,0.999876320362091,1],"min":[-1,-1,-1],"normalized":false,"type":"VEC3"},{"bufferView":15,"byteOffset":0,"componentType":5126,"count":3587,"max":[0.85205078125,3.16015625],"min":[-0.2939453125,-2.162109375],"normalized":false,"type":"VEC2"},{"bufferView":16,"byteOffset":0,"componentType":5126,"count":3587,"max":[0.79638671875,0.79736328125],"min":[0.203125,0.2083740234375],"normalized":false,"type":"VEC2"},{"bufferView":17,"byteOffset":0,"componentType":5123,"count":5964,"max":[3586],"min":[0],"normalized":false,"type":"SCALAR"},{"bufferView":18,"byteOffset":0,"componentType":5126,"count":832,"max":[0.711647093296051,3.11017823219299,2.81591248512268],"min":[-1.20983135700226,0.943040549755096,1.17554569244385],"normalized":false,"type":"VEC3"},{"bufferView":19,"byteOffset":0,"componentType":5126,"count":832,"max":[1,0.999969124794006,1,1],"min":[-1,-1,-1,-1],"normalized":false,"type":"VEC4"},{"bufferView":20,"byteOffset":0,"componentType":5126,"count":832,"max":[1,1,1],"min":[-1,-1,-1],"normalized":false,"type":"VEC3"},{"bufferView":21,"byteOffset":0,"componentType":5126,"count":832,"max":[1.388671875,2.359375],"min":[-0.88037109375,-1.244140625],"normalized":false,"type":"VEC2"},{"bufferView":22,"byteOffset":0,"componentType":5126,"count":832,"max":[0.79345703125,0.79736328125],"min":[0.203125,0.2061767578125],"normalized":false,"type":"VEC2"},{"bufferView":23,"byteOffset":0,"componentType":5123,"count":1296,"max":[831],"min":[0],"normalized":false,"type":"SCALAR"},{"bufferView":24,"byteOffset":0,"componentType":5126,"count":16,"max":[-0.01278975605965,2.12417912483215,2.38150715827942],"min":[-0.0127908475697,1.24591851234436,1.62083840370178],"normalized":false,"type":"VEC3"},{"bufferView":25,"byteOffset":0,"componentType":5126,"count":16,"max":[0.0000737011432647705,1,0.0000736713409423828,1],"min":[0.0000182390213012695,1,0.0000182092189788818,-1],"normalized":false,"type":"VEC4"},{"bufferView":26,"byteOffset":0,"componentType":5126,"count":16,"max":[-1,0.0000736713409423828,-0.00006404519081],"min":[-1,0.0000182092189788818,-0.00011950731277],"normalized":false,"type":"VEC3"},{"bufferView":27,"byteOffset":0,"componentType":5126,"count":16,"max":[0.585931181907654,0.962890028953552],"min":[0.414785981178284,0.896971106529236],"normalized":false,"type":"VEC2"},{"bufferView":28,"byteOffset":0,"componentType":5126,"count":16,"max":[0.628412306308746,0.30394446849823],"min":[0.582024872303009,0.250476837158203],"normalized":false,"type":"VEC2"},{"bufferView":29,"byteOffset":0,"componentType":5123,"count":36,"max":[15],"min":[0],"normalized":false,"type":"SCALAR"}],"asset":{"generator":"Godot Engine v4.3.stable.official@77dcf97d82cbfe4e4615475fa52ca03da645dbd8","version":"2.0"},"bufferViews":[{"buffer":0,"byteLength":108,"byteOffset":0,"byteStride":12,"target":34962},{"buffer":0,"byteLength":144,"byteOffset":108,"byteStride":16,"target":34962},{"buffer":0,"byteLength":108,"byteOffset":252,"byteStride":12,"target":34962},{"buffer":0,"byteLength":72,"byteOffset":360,"byteStride":8,"target":34962},{"buffer":0,"byteLength":72,"byteOffset":432,"byteStride":8,"target":34962},{"buffer":0,"byteLength":54,"byteOffset":504,"target":34963},{"buffer":0,"byteLength":108,"byteOffset":560,"byteStride":12,"target":34962},{"buffer":0,"byteLength":144,"byteOffset":668,"byteStride":16,"target":34962},{"buffer":0,"byteLength":108,"byteOffset":812,"byteStride":12,"target":34962},{"buffer":0,"byteLength":72,"byteOffset":920,"byteStride":8,"target":34962},{"buffer":0,"byteLength":72,"byteOffset":992,"byteStride":8,"target":34962},{"buffer":0,"byteLength":54,"byteOffset":1064,"target":34963},{"buffer":0,"byteLength":43044,"byteOffset":1120,"byteStride":12,"target":34962},{"buffer":0,"byteLength":57392,"byteOffset":44164,"byteStride":16,"target":34962},{"buffer":0,"byteLength":43044,"byteOffset":101556,"byteStride":12,"target":34962},{"buffer":0,"byteLength":28696,"byteOffset":144600,"byteStride":8,"target":34962},{"buffer":0,"byteLength":28696,"byteOffset":173296,"byteStride":8,"target":34962},{"buffer":0,"byteLength":11928,"byteOffset":201992,"target":34963},{"buffer":0,"byteLength":9984,"byteOffset":213920,"byteStride":12,"target":34962},{"buffer":0,"byteLength":13312,"byteOffset":223904,"byteStride":16,"target":34962},{"buffer":0,"byteLength":9984,"byteOffset":237216,"byteStride":12,"target":34962},{"buffer":0,"byteLength":6656,"byteOffset":247200,"byteStride":8,"target":34962},{"buffer":0,"byteLength":6656,"byteOffset":253856,"byteStride":8,"target":34962},{"buffer":0,"byteLength":2592,"byteOffset":260512,"target":34963},{"buffer":0,"byteLength":192,"byteOffset":263104,"byteStride":12,"target":34962},{"buffer":0,"byteLength":256,"byteOffset":263296,"byteStride":16,"target":34962},{"buffer":0,"byteLength":192,"byteOffset":263552,"byteStride":12,"target":34962},{"buffer":0,"byteLength":128,"byteOffset":263744,"byteStride":8,"target":34962},{"buffer":0,"byteLength":128,"byteOffset":263872,"byteStride":8,"target":34962},{"buffer":0,"byteLength":72,"byteOffset":264000,"target":34963}],"buffers":[{"byteLength":264072,"uri":"SM_Window_Roof_010.bin"}],"extensionsUsed":["GODOT_single_root"],"images":[{"uri":"textures%2FSM_Window_Roof_01_MI_TrimSheet_Wood_01_Light_0_albedo.png"},{"uri":"textures%2FSM_Window_Roof_01_MI_TrimSheet_Wood_01_Light_0_normal.png"},{"uri":"textures%2FSM_Window_Roof_01_MI_TrimSheet_Wood_01_Dark_1_albedo.png"},{"uri":"textures%2FSM_Window_Roof_01_MI_TrimSheet_Wood_01_Dark_1_normal.png"}],"materials":[{"doubleSided":true,"extensions":{},"name":"SM_Window_Roof_01_MI_TrimSheet_Wood_01_Light_0","normalTexture":{"index":1,"scale":1},"pbrMetallicRoughness":{"baseColorFactor":[0.99999988079071,0.99999988079071,0.99999988079071,1],"baseColorTexture":{"index":0},"metallicFactor":0,"roughnessFactor":0.5}},{"doubleSided":true,"extensions":{},"name":"SM_Window_Roof_01_MI_TrimSheet_Wood_01_Dark_1","normalTexture":{"index":3,"scale":1},"pbrMetallicRoughness":{"baseColorFactor":[0.99999988079071,0.99999988079071,0.99999988079071,1],"baseColorTexture":{"index":2},"metallicFactor":0,"roughnessFactor":0.5}},{"alphaMode":"BLEND","extensions":{},"name":"SM_Window_Roof_01_MI_Glass_2","pbrMetallicRoughness":{"baseColorFactor":[0.99999988079071,0.99999988079071,0.99999988079071,0],"metallicFactor":0,"roughnessFactor":0.5}}],"meshes":[{"extras":{"targetNames":[]},"primitives":[{"attributes":{"NORMAL":2,"POSITION":0,"TANGENT":1,"TEXCOORD_0":3,"TEXCOORD_1":4},"indices":5,"material":0,"mode":4},{"attributes":{"NORMAL":8,"POSITION":6,"TANGENT":7,"TEXCOORD_0":9,"TEXCOORD_1":10},"indices":11,"material":0,"mode":4},{"attributes":{"NORMAL":14,"POSITION":12,"TANGENT":13,"TEXCOORD_0":15,"TEXCOORD_1":16},"indices":17,"material":1,"mode":4},{"attributes":{"NORMAL":20,"POSITION":18,"TANGENT":19,"TEXCOORD_0":21,"TEXCOORD_1":22},"indices":23,"material":0,"mode":4},{"attributes":{"NORMAL":26,"POSITION":24,"TANGENT":25,"TEXCOORD_0":27,"TEXCOORD_1":28},"indices":29,"material":2,"mode":4}]}],"nodes":[{"children":[1],"name":"SM_Window_Roof_01"},{"mesh":0,"name":"Mesh"}],"samplers":[{"magFilter":9729,"minFilter":9987,"wrapS":10497,"wrapT":10497}],"scene":0,"scenes":[{"nodes":[0]}],"textures":[{"sampler":0,"source":0},{"sampler":0,"source":1},{"sampler":0,"source":2},{"sampler":0,"source":3}]}