{"accessors":[{"bufferView":0,"byteOffset":0,"componentType":5126,"count":3,"max":[0.00000000000172724746831665,4,0.00000260673073171347],"min":[-2,0,-0],"normalized":false,"type":"VEC3"},{"bufferView":1,"byteOffset":0,"componentType":5126,"count":3,"max":[-1,0,-0.00004577846266,-1],"min":[-1,0,-0.00004577846266,-1],"normalized":false,"type":"VEC4"},{"bufferView":2,"byteOffset":0,"componentType":5126,"count":3,"max":[-0.00001525925472,-0.00001525925472,1],"min":[-0.00001525925472,-0.00001525925472,1],"normalized":false,"type":"VEC3"},{"bufferView":3,"byteOffset":0,"componentType":5126,"count":3,"max":[0.5,0.9990234375],"min":[0.000551700592041016,0.000551223754882813],"normalized":false,"type":"VEC2"},{"bufferView":4,"byteOffset":0,"componentType":5126,"count":3,"max":[0.49951171875,0.98828125],"min":[0.0114212036132813,0.0119705200195313],"normalized":false,"type":"VEC2"},{"bufferView":5,"byteOffset":0,"componentType":5126,"count":3,"max":[0.91552734375,0.99169921875],"min":[0.00806427001953125,0.00806427001953125],"normalized":false,"type":"VEC2"},{"bufferView":6,"byteOffset":0,"componentType":5126,"count":3,"max":[0,0],"min":[0,0],"normalized":false,"type":"VEC2"},{"bufferView":7,"byteOffset":0,"componentType":5123,"count":3,"max":[2],"min":[0],"normalized":false,"type":"SCALAR"},{"bufferView":8,"byteOffset":0,"componentType":5126,"count":3,"max":[0,4,-0.19999739527702],"min":[-2.00000023841858,-0.00000003258414,-0.19999998807907],"normalized":false,"type":"VEC3"},{"bufferView":9,"byteOffset":0,"componentType":5126,"count":3,"max":[-1,-0.00000000000133,-0.00000008742278,1],"min":[-1,-0.00000000000133,-0.00000008742278,1],"normalized":false,"type":"VEC4"},{"bufferView":10,"byteOffset":0,"componentType":5126,"count":3,"max":[0.0000000874227765734759,-0.00003051804379,-1],"min":[0.0000000874227765734759,-0.00003051804379,-1],"normalized":false,"type":"VEC3"},{"bufferView":11,"byteOffset":0,"componentType":5126,"count":3,"max":[0.499259948730469,1],"min":[0,0],"normalized":false,"type":"VEC2"},{"bufferView":12,"byteOffset":0,"componentType":5126,"count":3,"max":[0.987304508686066,0.988281071186066],"min":[0.499504089355469,0.0114137483760715],"normalized":false,"type":"VEC2"},{"bufferView":13,"byteOffset":0,"componentType":5126,"count":3,"max":[0.97900390625,0.99169921875],"min":[0.07257080078125,0.00806427001953125],"normalized":false,"type":"VEC2"},{"bufferView":14,"byteOffset":0,"componentType":5126,"count":3,"max":[0,0],"min":[0,0],"normalized":false,"type":"VEC2"},{"bufferView":15,"byteOffset":0,"componentType":5123,"count":3,"max":[2],"min":[0],"normalized":false,"type":"SCALAR"}],"asset":{"generator":"Godot Engine v4.3.stable.official@77dcf97d82cbfe4e4615475fa52ca03da645dbd8","version":"2.0"},"bufferViews":[{"buffer":0,"byteLength":36,"byteOffset":0,"byteStride":12,"target":34962},{"buffer":0,"byteLength":48,"byteOffset":36,"byteStride":16,"target":34962},{"buffer":0,"byteLength":36,"byteOffset":84,"byteStride":12,"target":34962},{"buffer":0,"byteLength":24,"byteOffset":120,"byteStride":8,"target":34962},{"buffer":0,"byteLength":24,"byteOffset":144,"byteStride":8,"target":34962},{"buffer":0,"byteLength":24,"byteOffset":168,"byteStride":8,"target":34962},{"buffer":0,"byteLength":24,"byteOffset":192,"byteStride":8,"target":34962},{"buffer":0,"byteLength":6,"byteOffset":216,"target":34963},{"buffer":0,"byteLength":36,"byteOffset":224,"byteStride":12,"target":34962},{"buffer":0,"byteLength":48,"byteOffset":260,"byteStride":16,"target":34962},{"buffer":0,"byteLength":36,"byteOffset":308,"byteStride":12,"target":34962},{"buffer":0,"byteLength":24,"byteOffset":344,"byteStride":8,"target":34962},{"buffer":0,"byteLength":24,"byteOffset":368,"byteStride":8,"target":34962},{"buffer":0,"byteLength":24,"byteOffset":392,"byteStride":8,"target":34962},{"buffer":0,"byteLength":24,"byteOffset":416,"byteStride":8,"target":34962},{"buffer":0,"byteLength":6,"byteOffset":440,"target":34963}],"buffers":[{"byteLength":448,"uri":"SM_Wall_Triangle0.bin"}],"extensionsUsed":["GODOT_single_root"],"images":[{"uri":"textures%2FSM_Wall_03_MI_TrimSheet_Wood_01_Light_0_albedo.png"},{"uri":"textures%2FSM_Wall_03_MI_TrimSheet_Wood_01_Light_0_normal.png"}],"materials":[{"doubleSided":true,"extensions":{},"name":"SM_Wall_03_MI_TrimSheet_Wood_01_Light_0","normalTexture":{"index":1,"scale":1},"pbrMetallicRoughness":{"baseColorFactor":[0.99999988079071,0.99999988079071,0.99999988079071,1],"baseColorTexture":{"index":0},"metallicFactor":0,"roughnessFactor":0.5}}],"meshes":[{"extras":{"targetNames":[]},"primitives":[{"attributes":{"NORMAL":2,"POSITION":0,"TANGENT":1,"TEXCOORD_0":3,"TEXCOORD_1":4,"TEXCOORD_2":5,"TEXCOORD_3":6},"indices":7,"material":0,"mode":4},{"attributes":{"NORMAL":10,"POSITION":8,"TANGENT":9,"TEXCOORD_0":11,"TEXCOORD_1":12,"TEXCOORD_2":13,"TEXCOORD_3":14},"indices":15,"material":0,"mode":4}]}],"nodes":[{"children":[1],"name":"SM_Wall_03"},{"mesh":0,"name":"Mesh"}],"samplers":[{"magFilter":9729,"minFilter":9987,"wrapS":10497,"wrapT":10497}],"scene":0,"scenes":[{"nodes":[0]}],"textures":[{"sampler":0,"source":0},{"sampler":0,"source":1}]}