{"accessors":[{"bufferView":0,"byteOffset":0,"componentType":5126,"count":4,"max":[1.99999964237213,4,0.00000265044241132273],"min":[-2,-0.00000017484533,-0.00000065168268],"normalized":false,"type":"VEC3"},{"bufferView":1,"byteOffset":0,"componentType":5126,"count":4,"max":[-0.44724640250206,-0.89441084861755,-0.00002039240644,-1],"min":[-0.44724640250206,-0.89441084861755,-0.00002039240644,-1],"normalized":false,"type":"VEC4"},{"bufferView":2,"byteOffset":0,"componentType":5126,"count":4,"max":[-0.00001525925472,-0.00001525925472,1],"min":[-0.00001525925472,-0.00001525925472,1],"normalized":false,"type":"VEC3"},{"bufferView":3,"byteOffset":0,"componentType":5126,"count":4,"max":[1.1650390625,1.185546875],"min":[-0.5,0.44140625],"normalized":false,"type":"VEC2"},{"bufferView":4,"byteOffset":0,"componentType":5126,"count":4,"max":[0.705078125,0.5],"min":[0.18896484375,0.26904296875],"normalized":false,"type":"VEC2"},{"bufferView":5,"byteOffset":0,"componentType":5123,"count":6,"max":[3],"min":[0],"normalized":false,"type":"SCALAR"},{"bufferView":6,"byteOffset":0,"componentType":5126,"count":4,"max":[1.99999988079071,3.99999976158142,-0.19999735057354],"min":[-1.99999964237213,-0.00000020742925,-0.19999805092812],"normalized":false,"type":"VEC3"},{"bufferView":7,"byteOffset":0,"componentType":5126,"count":4,"max":[0.447213292121887,0.894427239894867,0.000107150750409346,1],"min":[0.447213292121887,0.894427239894867,0.000107150750409346,1],"normalized":false,"type":"VEC4"},{"bufferView":8,"byteOffset":0,"componentType":5126,"count":4,"max":[0.000107242674857844,0.000066176857217215,-1],"min":[0.000107242674857844,0.000066176857217215,-1],"normalized":false,"type":"VEC3"},{"bufferView":9,"byteOffset":0,"componentType":5126,"count":4,"max":[1.5,1.185546875],"min":[-0.16518652439117,0.441384941339493],"normalized":false,"type":"VEC2"},{"bufferView":10,"byteOffset":0,"componentType":5126,"count":4,"max":[0.705078125,0.73046875],"min":[0.188956826925278,0.499986857175827],"normalized":false,"type":"VEC2"},{"bufferView":11,"byteOffset":0,"componentType":5123,"count":6,"max":[3],"min":[0],"normalized":false,"type":"SCALAR"}],"asset":{"generator":"Godot Engine v4.3.stable.official@77dcf97d82cbfe4e4615475fa52ca03da645dbd8","version":"2.0"},"bufferViews":[{"buffer":0,"byteLength":48,"byteOffset":0,"byteStride":12,"target":34962},{"buffer":0,"byteLength":64,"byteOffset":48,"byteStride":16,"target":34962},{"buffer":0,"byteLength":48,"byteOffset":112,"byteStride":12,"target":34962},{"buffer":0,"byteLength":32,"byteOffset":160,"byteStride":8,"target":34962},{"buffer":0,"byteLength":32,"byteOffset":192,"byteStride":8,"target":34962},{"buffer":0,"byteLength":12,"byteOffset":224,"target":34963},{"buffer":0,"byteLength":48,"byteOffset":236,"byteStride":12,"target":34962},{"buffer":0,"byteLength":64,"byteOffset":284,"byteStride":16,"target":34962},{"buffer":0,"byteLength":48,"byteOffset":348,"byteStride":12,"target":34962},{"buffer":0,"byteLength":32,"byteOffset":396,"byteStride":8,"target":34962},{"buffer":0,"byteLength":32,"byteOffset":428,"byteStride":8,"target":34962},{"buffer":0,"byteLength":12,"byteOffset":460,"target":34963}],"buffers":[{"byteLength":472,"uri":"SM_Wall_Parallelogram0.bin"}],"extensionsUsed":["GODOT_single_root"],"images":[{"uri":"textures%2FSM_Wall_02_MI_TrimSheet_Wood_01_Light_0_albedo.png"},{"uri":"textures%2FSM_Wall_02_MI_TrimSheet_Wood_01_Light_0_normal.png"}],"materials":[{"doubleSided":true,"extensions":{},"name":"SM_Wall_02_MI_TrimSheet_Wood_01_Light_0","normalTexture":{"index":1,"scale":1},"pbrMetallicRoughness":{"baseColorFactor":[0.99999988079071,0.99999988079071,0.99999988079071,1],"baseColorTexture":{"index":0},"metallicFactor":0,"roughnessFactor":0.5}}],"meshes":[{"extras":{"targetNames":[]},"primitives":[{"attributes":{"NORMAL":2,"POSITION":0,"TANGENT":1,"TEXCOORD_0":3,"TEXCOORD_1":4},"indices":5,"material":0,"mode":4},{"attributes":{"NORMAL":8,"POSITION":6,"TANGENT":7,"TEXCOORD_0":9,"TEXCOORD_1":10},"indices":11,"material":0,"mode":4}]}],"nodes":[{"children":[1],"name":"SM_Wall_02"},{"mesh":0,"name":"Mesh"}],"samplers":[{"magFilter":9729,"minFilter":9987,"wrapS":10497,"wrapT":10497}],"scene":0,"scenes":[{"nodes":[0]}],"textures":[{"sampler":0,"source":0},{"sampler":0,"source":1}]}