{"accessors":[{"bufferView":0,"byteOffset":0,"componentType":5126,"count":23,"max":[0.00000351255607711209,4.00000047683716,3.99999976158142],"min":[-0.00000004371139,0,-0.00000065168268],"normalized":false,"type":"VEC3"},{"bufferView":1,"byteOffset":0,"componentType":5126,"count":23,"max":[0.0001220703125,0.0000305817193293478,-0.99999994039536,-1],"min":[0.0001220703125,0.0000305817193293478,-0.99999994039536,-1],"normalized":false,"type":"VEC4"},{"bufferView":2,"byteOffset":0,"componentType":5126,"count":23,"max":[-1,-0.00003045436097,-0.00012207032705],"min":[-1,-0.00003045436097,-0.00012207032705],"normalized":false,"type":"VEC3"},{"bufferView":3,"byteOffset":0,"componentType":5126,"count":23,"max":[1,1],"min":[0,0],"normalized":false,"type":"VEC2"},{"bufferView":4,"byteOffset":0,"componentType":5126,"count":23,"max":[0.989745914936066,0.99072253704071],"min":[0.501457214355469,0.502433836460114],"normalized":false,"type":"VEC2"},{"bufferView":5,"byteOffset":0,"componentType":5123,"count":69,"max":[22],"min":[0],"normalized":false,"type":"SCALAR"},{"bufferView":6,"byteOffset":0,"componentType":5126,"count":25,"max":[0.200003519654274,4.00000047683716,3.99999952316284],"min":[0.199999958276749,-0.00000000000004,-0.00000092507031],"normalized":false,"type":"VEC3"},{"bufferView":7,"byteOffset":0,"componentType":5126,"count":25,"max":[-0.00007192691555,0.0000152590218931437,-1,-1],"min":[-0.00007192691555,0.0000152590218931437,-1,-1],"normalized":false,"type":"VEC4"},{"bufferView":8,"byteOffset":0,"componentType":5126,"count":25,"max":[1,0.000015260118743754,-0.00007192668272],"min":[1,0.000015260118743754,-0.00007192668272],"normalized":false,"type":"VEC3"},{"bufferView":9,"byteOffset":0,"componentType":5126,"count":25,"max":[1.498046875,1.498046875],"min":[-0.49829745292664,-0.49829745292664],"normalized":false,"type":"VEC2"},{"bufferView":10,"byteOffset":0,"componentType":5126,"count":25,"max":[0.498046875,0.99072265625],"min":[0.0101456334814429,0.502428770065308],"normalized":false,"type":"VEC2"},{"bufferView":11,"byteOffset":0,"componentType":5123,"count":75,"max":[24],"min":[0],"normalized":false,"type":"SCALAR"},{"bufferView":12,"byteOffset":0,"componentType":5126,"count":117,"max":[0.105862021446228,3.40116286277771,2.46341347694397],"min":[0.0941392108798027,0.788803100585938,1.49954128265381],"normalized":false,"type":"VEC3"},{"bufferView":13,"byteOffset":0,"componentType":5126,"count":117,"max":[1,0,-0.00001525902189,1],"min":[1,0,-0.00001525902189,1],"normalized":false,"type":"VEC4"},{"bufferView":14,"byteOffset":0,"componentType":5126,"count":117,"max":[1,0.703146636486053,0.683162331581116],"min":[-0.74801760911942,-0.98882454633713,-0.68315160274506],"normalized":false,"type":"VEC3"},{"bufferView":15,"byteOffset":0,"componentType":5126,"count":117,"max":[0,1],"min":[0,1],"normalized":false,"type":"VEC2"},{"bufferView":16,"byteOffset":0,"componentType":5126,"count":117,"max":[0.5751953125,0.435791015625],"min":[0.053375244140625,0.156494140625],"normalized":false,"type":"VEC2"},{"bufferView":17,"byteOffset":0,"componentType":5123,"count":372,"max":[116],"min":[0],"normalized":false,"type":"SCALAR"},{"bufferView":18,"byteOffset":0,"componentType":5126,"count":1282,"max":[0.300000607967377,3.51264953613281,2.58275866508484],"min":[-0.09999937564135,0.675766885280609,1.38019609451294],"normalized":false,"type":"VEC3"},{"bufferView":19,"byteOffset":0,"componentType":5126,"count":1282,"max":[0.410721689462662,1,1,1],"min":[-0.41078433394432,-1,-1,-1],"normalized":false,"type":"VEC4"},{"bufferView":20,"byteOffset":0,"componentType":5126,"count":1282,"max":[0.999972462654114,1,1],"min":[-0.99987810850143,-1,-1],"normalized":false,"type":"VEC3"},{"bufferView":21,"byteOffset":0,"componentType":5126,"count":1282,"max":[1.7626953125,0.57568359375],"min":[-0.64013671875,0.00635528564453125],"normalized":false,"type":"VEC2"},{"bufferView":22,"byteOffset":0,"componentType":5126,"count":1282,"max":[0.99658203125,0.47314453125],"min":[0.0105361938476563,0.0059814453125],"normalized":false,"type":"VEC2"},{"bufferView":23,"byteOffset":0,"componentType":5123,"count":2304,"max":[959],"min":[0],"normalized":false,"type":"SCALAR"}],"asset":{"generator":"Godot Engine v4.3.stable.official@77dcf97d82cbfe4e4615475fa52ca03da645dbd8","version":"2.0"},"bufferViews":[{"buffer":0,"byteLength":276,"byteOffset":0,"byteStride":12,"target":34962},{"buffer":0,"byteLength":368,"byteOffset":276,"byteStride":16,"target":34962},{"buffer":0,"byteLength":276,"byteOffset":644,"byteStride":12,"target":34962},{"buffer":0,"byteLength":184,"byteOffset":920,"byteStride":8,"target":34962},{"buffer":0,"byteLength":184,"byteOffset":1104,"byteStride":8,"target":34962},{"buffer":0,"byteLength":138,"byteOffset":1288,"target":34963},{"buffer":0,"byteLength":300,"byteOffset":1428,"byteStride":12,"target":34962},{"buffer":0,"byteLength":400,"byteOffset":1728,"byteStride":16,"target":34962},{"buffer":0,"byteLength":300,"byteOffset":2128,"byteStride":12,"target":34962},{"buffer":0,"byteLength":200,"byteOffset":2428,"byteStride":8,"target":34962},{"buffer":0,"byteLength":200,"byteOffset":2628,"byteStride":8,"target":34962},{"buffer":0,"byteLength":150,"byteOffset":2828,"target":34963},{"buffer":0,"byteLength":1404,"byteOffset":2980,"byteStride":12,"target":34962},{"buffer":0,"byteLength":1872,"byteOffset":4384,"byteStride":16,"target":34962},{"buffer":0,"byteLength":1404,"byteOffset":6256,"byteStride":12,"target":34962},{"buffer":0,"byteLength":936,"byteOffset":7660,"byteStride":8,"target":34962},{"buffer":0,"byteLength":936,"byteOffset":8596,"byteStride":8,"target":34962},{"buffer":0,"byteLength":744,"byteOffset":9532,"target":34963},{"buffer":0,"byteLength":15384,"byteOffset":10276,"byteStride":12,"target":34962},{"buffer":0,"byteLength":20512,"byteOffset":25660,"byteStride":16,"target":34962},{"buffer":0,"byteLength":15384,"byteOffset":46172,"byteStride":12,"target":34962},{"buffer":0,"byteLength":10256,"byteOffset":61556,"byteStride":8,"target":34962},{"buffer":0,"byteLength":10256,"byteOffset":71812,"byteStride":8,"target":34962},{"buffer":0,"byteLength":4608,"byteOffset":82068,"target":34963}],"buffers":[{"byteLength":86676,"uri":"SM_Window_Wall_010.bin"}],"extensionsUsed":["GODOT_single_root"],"images":[{"uri":"textures%2FSM_Window_Wall_01_MI_Tavern_TrimSheet_01_0_albedo.png"},{"uri":"textures%2FSM_Window_Wall_01_MI_Tavern_TrimSheet_01_0_normal.png"},{"uri":"textures%2FSM_Window_Wall_01_MI_TrimSheet_Wood_02_1_albedo.png"},{"uri":"textures%2FSM_Window_Wall_01_MI_TrimSheet_Wood_02_1_normal.png"},{"uri":"textures%2FSM_Window_Wall_01_MI_TrimSheet_Wood_04_3_albedo.png"},{"uri":"textures%2FSM_Window_Wall_01_MI_TrimSheet_Wood_04_3_normal.png"}],"materials":[{"doubleSided":true,"extensions":{},"name":"SM_Window_Wall_01_MI_Tavern_TrimSheet_01_0","normalTexture":{"index":1,"scale":1},"pbrMetallicRoughness":{"baseColorFactor":[0.99999988079071,0.99999988079071,0.99999988079071,1],"baseColorTexture":{"index":0},"metallicFactor":0,"roughnessFactor":0.5}},{"doubleSided":true,"extensions":{},"name":"SM_Window_Wall_01_MI_TrimSheet_Wood_02_1","normalTexture":{"index":3,"scale":1},"pbrMetallicRoughness":{"baseColorFactor":[0.99999988079071,0.99999988079071,0.99999988079071,1],"baseColorTexture":{"index":2},"metallicFactor":0,"roughnessFactor":0.5}},{"alphaMode":"BLEND","extensions":{},"name":"SM_Window_Wall_01_MI_Glass_2","pbrMetallicRoughness":{"baseColorFactor":[0.99999988079071,0.99999988079071,0.99999988079071,0],"metallicFactor":0,"roughnessFactor":0.5}},{"doubleSided":true,"extensions":{},"name":"SM_Window_Wall_01_MI_TrimSheet_Wood_04_3","normalTexture":{"index":5,"scale":1},"pbrMetallicRoughness":{"baseColorFactor":[0.99999988079071,0.99999988079071,0.99999988079071,1],"baseColorTexture":{"index":4},"metallicFactor":0,"roughnessFactor":0.5}}],"meshes":[{"extras":{"targetNames":[]},"primitives":[{"attributes":{"NORMAL":2,"POSITION":0,"TANGENT":1,"TEXCOORD_0":3,"TEXCOORD_1":4},"indices":5,"material":0,"mode":4},{"attributes":{"NORMAL":8,"POSITION":6,"TANGENT":7,"TEXCOORD_0":9,"TEXCOORD_1":10},"indices":11,"material":1,"mode":4},{"attributes":{"NORMAL":14,"POSITION":12,"TANGENT":13,"TEXCOORD_0":15,"TEXCOORD_1":16},"indices":17,"material":2,"mode":4},{"attributes":{"NORMAL":20,"POSITION":18,"TANGENT":19,"TEXCOORD_0":21,"TEXCOORD_1":22},"indices":23,"material":3,"mode":4}]}],"nodes":[{"children":[1],"name":"SM_Window_Wall_01"},{"mesh":0,"name":"Mesh"}],"samplers":[{"magFilter":9729,"minFilter":9987,"wrapS":10497,"wrapT":10497}],"scene":0,"scenes":[{"nodes":[0]}],"textures":[{"sampler":0,"source":0},{"sampler":0,"source":1},{"sampler":0,"source":2},{"sampler":0,"source":3},{"sampler":0,"source":4},{"sampler":0,"source":5}]}