{"accessors":[{"bufferView":0,"byteOffset":0,"componentType":5126,"count":360,"max":[1.28248941898346,0.0238159913569689,1.28963243961334],"min":[-1.29186844825745,-0.00000021396497,-1.28472542762756],"normalized":false,"type":"VEC3"},{"bufferView":1,"byteOffset":0,"componentType":5126,"count":360,"max":[0.999721646308899,0.597006678581238,0.992460310459137,1],"min":[-0.99295288324356,-0.6213750243187,-1,1],"normalized":false,"type":"VEC4"},{"bufferView":2,"byteOffset":0,"componentType":5126,"count":360,"max":[0.912517368793488,1,0.648543059825897],"min":[-0.9365006685257,-0.25182881951332,-0.51216018199921],"normalized":false,"type":"VEC3"},{"bufferView":3,"byteOffset":0,"componentType":5126,"count":360,"max":[0.98095703125,0.99755859375],"min":[0.0019989013671875,0.00200271606445313],"normalized":false,"type":"VEC2"},{"bufferView":4,"byteOffset":0,"componentType":5126,"count":360,"max":[0.99560546875,0.99560546875],"min":[0.0039825439453125,0.0244598388671875],"normalized":false,"type":"VEC2"},{"bufferView":5,"byteOffset":0,"componentType":5123,"count":1254,"max":[329],"min":[0],"normalized":false,"type":"SCALAR"}],"asset":{"generator":"Godot Engine v4.3.stable.official@77dcf97d82cbfe4e4615475fa52ca03da645dbd8","version":"2.0"},"bufferViews":[{"buffer":0,"byteLength":4320,"byteOffset":0,"byteStride":12,"target":34962},{"buffer":0,"byteLength":5760,"byteOffset":4320,"byteStride":16,"target":34962},{"buffer":0,"byteLength":4320,"byteOffset":10080,"byteStride":12,"target":34962},{"buffer":0,"byteLength":2880,"byteOffset":14400,"byteStride":8,"target":34962},{"buffer":0,"byteLength":2880,"byteOffset":17280,"byteStride":8,"target":34962},{"buffer":0,"byteLength":2508,"byteOffset":20160,"target":34963}],"buffers":[{"byteLength":22668,"uri":"SM_Wheelhouse_Carpet0.bin"}],"extensionsUsed":["GODOT_single_root"],"images":[{"uri":"textures%2FSM_Wheelhouse_Carpet_MI_WheelHouse_Carpet_0_albedo.png"},{"uri":"textures%2FSM_Wheelhouse_Carpet_MI_WheelHouse_Carpet_0_normal.png"}],"materials":[{"alphaCutoff":0.5,"alphaMode":"MASK","extensions":{},"name":"SM_Wheelhouse_Carpet_MI_WheelHouse_Carpet_0","normalTexture":{"index":1,"scale":1},"pbrMetallicRoughness":{"baseColorFactor":[0.99999988079071,0.99999988079071,0.99999988079071,1],"baseColorTexture":{"index":0},"metallicFactor":0,"roughnessFactor":1}}],"meshes":[{"extras":{"targetNames":[]},"primitives":[{"attributes":{"NORMAL":2,"POSITION":0,"TANGENT":1,"TEXCOORD_0":3,"TEXCOORD_1":4},"indices":5,"material":0,"mode":4}]}],"nodes":[{"children":[1],"name":"SM_Wheelhouse_Carpet"},{"mesh":0,"name":"Mesh"}],"samplers":[{"magFilter":9729,"minFilter":9987,"wrapS":10497,"wrapT":10497}],"scene":0,"scenes":[{"nodes":[0]}],"textures":[{"sampler":0,"source":0},{"sampler":0,"source":1}]}